# Blender v2.80 (sub 74) OBJ File: 'linea_carretera.blend'
# www.blender.org
mtllib add_doblevia.mtl
o Plane.009_Plane.008
v 4.406808 -0.046257 -5.162840
v 4.295191 -0.046257 -5.162840
v 3.929059 -0.002451 -5.162840
v 6.010964 0.013451 -5.162840
v 7.615119 -0.047786 -5.162840
v 9.219274 0.079410 -5.162840
v 7.615119 0.077881 -5.162840
v 4.406808 -0.037181 -5.162840
v 4.406808 -0.068328 -5.162840
v 4.295191 -0.037181 -5.162840
v 4.295191 -0.068328 -5.162840
v 4.314879 -0.067984 -5.162840
v 4.359656 -0.067984 -5.162840
v 4.309594 -0.045502 -5.162840
v 4.299242 -0.037181 -5.162840
v 4.375772 -0.037181 -5.162840
v 4.365283 -0.045484 -5.162840
v 2.719045 -0.046257 -5.162840
v 2.830662 -0.046257 -5.162840
v 3.562927 -0.000427 -5.162840
v 3.196794 -0.002451 -5.162840
v -1.564406 0.000328 -5.162840
v -8.067604 -0.047786 -5.162840
v -9.671758 0.079410 -5.162840
v -8.067604 0.077881 -5.162840
v 2.719045 -0.037181 -5.162840
v 2.719045 -0.068328 -5.162840
v 2.830662 -0.037181 -5.162840
v 2.830662 -0.068328 -5.162840
v 2.810975 -0.067984 -5.162840
v 2.766197 -0.067984 -5.162840
v 2.816260 -0.045502 -5.162840
v 2.826611 -0.037181 -5.162840
v 2.750082 -0.037181 -5.162840
v 2.760570 -0.045484 -5.162840
v 4.406808 -0.046257 -1.512217
v 4.295191 -0.046257 -1.512217
v 9.219274 -0.046257 0.951789
v 3.929059 -0.002451 -1.512217
v 6.010964 0.013451 -1.512217
v 7.967183 -0.047786 1.322328
v 9.219274 0.079410 0.951789
v 7.967183 0.077881 1.322328
v 4.406808 -0.037181 -1.512217
v 4.406808 -0.068328 -1.512217
v 4.295191 -0.037181 -1.512217
v 4.295191 -0.068328 -1.512217
v 4.314879 -0.067984 -1.512217
v 4.359656 -0.067984 -1.512217
v 4.309594 -0.045502 -1.512217
v 4.299242 -0.037181 -1.512217
v 4.375772 -0.037181 -1.512217
v 4.365283 -0.045484 -1.512217
v 2.719045 -0.046257 -1.512217
v 2.830662 -0.046257 -1.512217
v -9.671758 -0.046257 0.973321
v 3.562927 -0.000427 -1.512217
v 3.196794 -0.002451 -1.512217
v -1.564406 0.000328 -1.512217
v -8.383174 -0.047786 1.405154
v -9.671758 0.079410 0.973321
v -8.383174 0.077881 1.405154
v 2.719045 -0.037181 -1.512217
v 2.719045 -0.068328 -1.512217
v 2.830662 -0.037181 -1.512217
v 2.830662 -0.068328 -1.512217
v 2.810975 -0.067984 -1.512217
v 2.766197 -0.067984 -1.512217
v 2.816260 -0.045502 -1.512217
v 2.826611 -0.037181 -1.512217
v 2.750082 -0.037181 -1.512217
v 2.760570 -0.045484 -1.512217
v 4.406808 -0.046257 2.453346
v 4.295191 -0.046257 1.549028
v 9.219274 -0.046257 2.453346
v 3.929059 -0.002451 1.549028
v 6.010964 0.013451 2.453346
v 7.615119 -0.047786 2.453346
v 9.219274 0.079410 2.453346
v 7.615119 0.077881 2.453346
v 4.406808 -0.037181 1.549028
v 4.406808 -0.068328 1.549028
v 4.295191 -0.037181 1.549028
v 4.295191 -0.068328 1.549028
v 4.314879 -0.067984 1.549028
v 4.359656 -0.067984 1.549028
v 4.309594 -0.045502 1.549028
v 4.299242 -0.037181 1.549028
v 4.375772 -0.037181 1.549028
v 4.365283 -0.045484 1.549028
v 2.719045 -0.046257 2.458868
v 2.830662 -0.046257 1.549028
v -9.671758 -0.046257 2.458868
v 3.562927 -0.000427 1.549028
v 3.196794 -0.002451 1.549028
v -1.564406 0.000328 2.458868
v -8.067604 -0.047786 2.458868
v -9.671758 0.079410 2.458868
v -8.067604 0.077881 2.458868
v 2.719045 -0.037181 1.549028
v 2.719045 -0.068328 1.549028
v 2.830662 -0.037181 1.549028
v 2.830662 -0.068328 1.549028
v 2.810975 -0.067984 1.549028
v 2.766197 -0.067984 1.549028
v 2.816260 -0.045502 1.549028
v 2.826611 -0.037181 1.549028
v 2.750082 -0.037181 1.549028
v 2.760570 -0.045484 1.549028
v 4.406808 -0.046257 6.073075
v 4.295191 -0.046257 4.451932
v 9.219274 -0.046257 6.073075
v 3.929059 -0.002451 4.451932
v 6.010964 0.013451 6.073075
v 7.615119 -0.047786 6.073075
v 9.219274 0.079410 6.073075
v 7.615119 0.077881 6.073075
v 4.406808 -0.037181 4.451932
v 4.406808 -0.068328 4.451932
v 4.295191 -0.037181 4.451932
v 4.295191 -0.068328 4.451932
v 4.314879 -0.067984 4.451932
v 4.359656 -0.067984 4.451932
v 4.309594 -0.045502 4.451932
v 4.299242 -0.037181 4.451932
v 4.375772 -0.037181 4.451932
v 4.365283 -0.045484 4.451932
v 2.719045 -0.046257 4.451932
v 2.830662 -0.046257 4.451932
v -9.671758 -0.046257 4.451932
v 3.562927 -0.000427 4.451932
v 3.196794 -0.002451 4.451932
v -1.564406 0.000328 4.451932
v -8.067604 -0.047786 4.451932
v -9.671758 0.079410 4.451932
v -8.067604 0.077881 4.451932
v 2.719045 -0.037181 4.451932
v 2.719045 -0.068328 4.451932
v 2.830662 -0.037181 4.451932
v 2.830662 -0.068328 4.451932
v 2.810975 -0.067984 4.451932
v 2.766197 -0.067984 4.451932
v 2.816260 -0.045502 4.451932
v 2.826611 -0.037181 4.451932
v 2.750082 -0.037181 4.451932
v 2.760570 -0.045484 4.451932
v 4.406808 -0.046257 8.357660
v 4.295191 -0.046257 8.357660
v 9.219274 -0.046257 8.357660
v 3.929059 -0.002451 8.357660
v 6.010964 0.013451 8.357660
v 7.615119 -0.047786 8.357660
v 9.219274 0.079410 8.357660
v 7.615119 0.077881 8.357660
v 4.406808 -0.037181 8.357660
v 4.406808 -0.068328 8.357660
v 4.295191 -0.037181 8.357660
v 4.295191 -0.068328 8.357660
v 4.314879 -0.067984 8.357660
v 4.359656 -0.067984 8.357660
v 4.309594 -0.045502 8.357660
v 4.299242 -0.037181 8.357660
v 4.375772 -0.037181 8.357660
v 4.365283 -0.045484 8.357660
v 2.719045 -0.046257 8.357660
v 2.830662 -0.046257 8.357660
v -9.671758 -0.046257 8.357660
v 3.562927 -0.000427 8.357660
v 3.196794 -0.002451 8.357660
v -1.564406 0.000328 8.357660
v -8.067604 -0.047786 8.357660
v -9.671758 0.079410 8.357660
v -8.067604 0.077881 8.357660
v 2.719045 -0.037181 8.357660
v 2.719045 -0.068328 8.357660
v 2.830662 -0.037181 8.357660
v 2.830662 -0.068328 8.357660
v 2.810975 -0.067984 8.357660
v 2.766197 -0.067984 8.357660
v 2.816260 -0.045502 8.357660
v 2.826611 -0.037181 8.357660
v 2.750082 -0.037181 8.357660
v 2.760570 -0.045484 8.357660
v 2.406980 -0.042812 -5.162840
v 0.979163 -0.027284 -5.162840
v 2.406980 -0.042812 -1.512217
v 0.979163 -0.027284 -1.512217
v 2.406980 -0.042812 2.458868
v 0.979163 -0.027284 2.458868
v 2.406980 -0.042812 4.451932
v 0.979163 -0.027284 4.451932
v 2.406980 -0.042812 8.357660
v 0.979163 -0.027284 8.357660
v 2.406980 0.064488 -5.162840
v 0.979163 0.080016 -5.162840
v 2.406980 0.064488 -1.512217
v 0.979163 0.080016 -1.512217
v 2.406980 0.064488 2.458868
v 0.979163 0.080016 2.458868
v 2.406980 0.064488 4.451932
v 0.979163 0.080016 4.451932
v 2.406980 0.064488 8.357660
v 0.979163 0.080016 8.357660
v 7.974368 -0.047786 -4.025634
v 7.974368 0.077881 -4.025634
v 9.219274 0.079410 -3.664333
v 9.219274 -0.046257 -3.664333
v 30.332275 -0.046257 0.951789
v 30.332275 0.079410 0.951789
v 30.332275 0.079410 2.453346
v 30.332275 -0.046257 2.453346
v 30.332275 0.079410 -5.162840
v 30.332275 0.079410 -3.664333
v 30.332275 -0.046257 -3.664333
v -8.366565 -0.047786 -4.078708
v -8.366565 0.077881 -4.078708
v -9.671758 0.079410 -3.698213
v -9.671758 -0.046257 -3.698213
v -30.284828 0.079410 -5.162840
v -30.284828 -0.046257 -3.698213
v -30.284828 0.079410 -3.698213
v -30.284828 -0.046257 2.458868
v -30.284828 0.079410 2.458868
v -30.284828 0.079410 0.973321
v -30.284828 -0.046257 0.973321
vt 0.413735 0.000519
vt 0.533540 0.000519
vt 0.533541 0.548478
vt 0.413735 0.548478
vt 0.761337 0.000512
vt 0.761337 0.536315
vt 0.639908 0.536315
vt 0.639908 0.000512
vt 0.513336 0.549215
vt 0.514350 0.549221
vt 0.514385 0.607532
vt 0.513368 0.607525
vt 0.341551 0.399239
vt 0.342569 0.399243
vt 0.342583 0.457554
vt 0.341564 0.457550
vt 0.509277 0.549196
vt 0.510291 0.549202
vt 0.510315 0.607513
vt 0.509297 0.607506
vt 0.345609 0.399263
vt 0.346624 0.399265
vt 0.346653 0.457576
vt 0.345634 0.457574
vt 0.515363 0.549229
vt 0.515402 0.607540
vt 0.343582 0.399251
vt 0.344595 0.399258
vt 0.344617 0.457569
vt 0.343600 0.457562
vt 0.512320 0.549210
vt 0.512350 0.607520
vt 0.324268 0.765783
vt 0.314271 0.765783
vt 0.314271 0.666813
vt 0.324268 0.666813
vt 0.347640 0.399270
vt 0.348654 0.399277
vt 0.348688 0.457588
vt 0.347671 0.457581
vt 0.508262 0.549191
vt 0.508279 0.607502
vt 0.304345 0.765783
vt 0.304345 0.666813
vt 0.511305 0.549207
vt 0.511332 0.607518
vt 0.867374 0.751117
vt 0.825645 0.748521
vt 0.830900 0.653537
vt 0.873667 0.653737
vt 0.294419 0.765783
vt 0.284422 0.765783
vt 0.284422 0.666813
vt 0.294419 0.666813
vt 0.907553 0.757020
vt 0.925169 0.727291
vt 0.349668 0.399281
vt 0.349705 0.457592
vt 0.961495 0.763699
vt 0.911171 0.759127
vt 0.927642 0.730057
vt 0.961495 0.715584
vt 0.305551 0.367040
vt 0.242116 0.368481
vt 0.237528 0.276052
vt 0.303419 0.274233
vt 0.066179 0.390001
vt 0.049569 0.361033
vt 0.063412 0.391623
vt 0.012015 0.398640
vt 0.009911 0.349753
vt 0.047015 0.363970
vt 0.507244 0.549187
vt 0.507260 0.607498
vt 0.516376 0.549233
vt 0.516419 0.607543
vt 0.350683 0.399285
vt 0.350723 0.457596
vt 0.041128 0.197684
vt 0.052639 0.169910
vt 0.235286 0.172817
vt 0.925970 0.568783
vt 0.923648 0.571403
vt 0.907457 0.543521
vt 0.910002 0.542025
vt 0.038603 0.195403
vt 0.007401 0.212141
vt 0.003907 0.167969
vt 0.048979 0.169012
vt 0.508274 0.665971
vt 0.507255 0.665967
vt 0.770687 0.000618
vt 0.770687 0.536422
vt 0.516412 0.666012
vt 0.515393 0.666009
vt 0.512344 0.665988
vt 0.511326 0.665987
vt 0.350715 0.516065
vt 0.349695 0.516061
vt 0.514377 0.666000
vt 0.513361 0.665994
vt 0.342576 0.516023
vt 0.341558 0.516019
vt 0.510308 0.665982
vt 0.509291 0.665975
vt 0.346644 0.516045
vt 0.345626 0.516044
vt 0.344608 0.516038
vt 0.343592 0.516032
vt 0.314271 0.583822
vt 0.324268 0.583822
vt 0.348678 0.516057
vt 0.347661 0.516050
vt 0.304345 0.583822
vt 0.826679 0.550464
vt 0.868403 0.548755
vt 0.284422 0.583822
vt 0.294419 0.583822
vt 0.957380 0.581504
vt 0.956702 0.537021
vt 0.302279 0.172091
vt 0.294419 0.505124
vt 0.304345 0.505124
vt 0.985713 0.767705
vt 0.985713 0.811195
vt 0.887581 0.811195
vt 0.887581 0.767706
vt 0.347641 0.574519
vt 0.346624 0.574514
vt 0.235666 0.119707
vt 0.302459 0.120189
vt 0.985713 0.764298
vt 0.887581 0.764299
vt 0.056978 0.113533
vt 0.985713 0.814601
vt 0.887581 0.814602
vt 0.007561 0.110757
vt 0.053363 0.113285
vt 0.508252 0.724440
vt 0.507234 0.724436
vt 0.000299 0.167737
vt 0.003985 0.110526
vt 0.516393 0.724482
vt 0.515374 0.724478
vt 0.512323 0.724457
vt 0.511305 0.724456
vt 0.350696 0.574534
vt 0.349677 0.574530
vt 0.514357 0.724469
vt 0.513340 0.724463
vt 0.342554 0.574492
vt 0.341537 0.574488
vt 0.510287 0.724450
vt 0.509269 0.724444
vt 0.345606 0.574512
vt 0.344588 0.574507
vt 0.343571 0.574500
vt 0.314271 0.505124
vt 0.324268 0.505124
vt 0.348659 0.574526
vt 0.985713 0.858122
vt 0.985713 0.901642
vt 0.887581 0.901642
vt 0.887581 0.858122
vt 0.284422 0.505124
vt 0.511346 0.782767
vt 0.510330 0.782761
vt 0.825645 0.901641
vt 0.825646 0.858122
vt 0.345647 0.632823
vt 0.344632 0.632817
vt 0.284422 0.399239
vt 0.294419 0.399239
vt 0.825646 0.814602
vt 0.349706 0.632841
vt 0.348690 0.632837
vt 0.304345 0.399239
vt 0.825646 0.811195
vt 0.825646 0.767706
vt 0.347676 0.632830
vt 0.346662 0.632825
vt 0.238633 0.015842
vt 0.304412 0.018287
vt 0.825646 0.764299
vt 0.063498 0.003843
vt 0.014777 0.000533
vt 0.059970 0.003628
vt 0.508302 0.782751
vt 0.507287 0.782747
vt 0.011231 0.000299
vt 0.516419 0.782793
vt 0.515402 0.782789
vt 0.512361 0.782769
vt 0.350723 0.632845
vt 0.514388 0.782781
vt 0.513375 0.782774
vt 0.342605 0.632804
vt 0.341591 0.632800
vt 0.509316 0.782755
vt 0.343618 0.632811
vt 0.314271 0.399239
vt 0.324268 0.399239
vt 0.353167 0.120705
vt 0.345099 0.120602
vt 0.346945 0.019241
vt 0.355041 0.019392
vt 0.345444 0.273579
vt 0.347116 0.366325
vt 0.344390 0.366374
vt 0.342708 0.273614
vt 0.352747 0.172009
vt 0.344735 0.172003
vt 0.353397 0.273481
vt 0.341978 0.172003
vt 0.342322 0.120567
vt 0.355041 0.366185
vt 0.305056 0.172080
vt 0.306163 0.274187
vt 0.305256 0.120220
vt 0.307210 0.018342
vt 0.344161 0.019190
vt 0.308277 0.366979
vt 0.955883 0.585081
vt 0.959788 0.711697
vt 0.404173 0.548368
vt 0.404173 0.000409
vt 0.365202 0.548368
vt 0.365202 0.000409
vt 0.355640 0.548258
vt 0.355640 0.000299
vt 0.011522 0.345660
vt 0.009272 0.215530
vt 0.630558 0.000406
vt 0.630558 0.536209
vt 0.808758 0.000618
vt 0.808758 0.536422
vt 0.591943 0.000406
vt 0.591943 0.536209
vt 0.582593 0.000299
vt 0.582593 0.536103
vt 0.543103 0.548588
vt 0.543102 0.000629
vt 0.581995 0.548588
vt 0.581994 0.000629
vn 0.0000 1.0000 0.0000
vn 0.6265 0.7794 0.0000
vn 1.0000 0.0000 0.0000
vn -0.6207 0.7840 0.0000
vn -0.6265 0.7794 0.0000
vn 0.9735 0.2289 0.0000
vn 0.9735 0.2288 0.0000
vn 0.1188 0.9929 0.0000
vn 0.0623 0.9981 0.0000
vn 0.6207 0.7840 0.0000
vn -0.9701 0.2426 0.0000
vn -0.0023 1.0000 -0.0012
vn -0.0372 0.9993 0.0000
vn -0.0027 1.0000 -0.0000
vn -0.9735 0.2288 0.0000
vn -0.0623 0.9981 0.0000
vn -0.1188 0.9929 0.0000
vn 0.0326 0.9995 -0.0024
vn 0.0218 0.9998 -0.0013
vn -0.0005 1.0000 0.0001
vn -0.0011 1.0000 0.0001
vn 0.9701 0.2427 0.0000
vn 0.9701 0.2426 0.0000
vn 0.0109 0.9999 0.0000
vn 0.0019 1.0000 -0.0002
vn 0.0019 1.0000 -0.0000
vn -0.0071 1.0000 -0.0005
vn -0.0046 1.0000 -0.0002
vn -0.9536 0.0000 0.3012
vn 0.0011 1.0000 0.0001
vn 0.0005 1.0000 0.0001
vn -1.0000 0.0000 0.0000
vn 0.9640 0.0000 0.2658
vn -0.0046 1.0000 0.0002
vn -0.0073 1.0000 0.0002
vn 0.0018 1.0000 0.0001
vn -0.9548 0.0000 -0.2972
vn -0.9886 0.0000 -0.1503
vn 0.0011 1.0000 -0.0001
vn 0.0005 1.0000 -0.0001
vn 0.0007 1.0000 -0.0000
vn 0.0010 1.0000 -0.0001
vn 0.1414 0.0000 0.9900
vn 0.1413 0.0000 0.9900
vn 0.0000 0.0000 1.0000
vn 0.9580 0.0000 -0.2869
vn 0.9894 0.0000 -0.1450
vn -0.0009 1.0000 0.0006
vn 0.0219 0.9998 0.0012
vn 0.0351 0.9994 0.0012
vn -0.0005 1.0000 -0.0001
vn -0.0011 1.0000 -0.0001
vn -0.0010 1.0000 -0.0001
vn -0.0007 1.0000 -0.0000
vn -0.0010 1.0000 0.0000
vn 0.0017 1.0000 0.0000
vn -0.0074 1.0000 0.0000
vn 0.0010 1.0000 0.0000
vn 0.0005 1.0000 0.0000
vn 0.0381 0.9993 0.0000
vn -0.9701 0.2427 0.0000
vn 0.0110 0.9999 0.0000
vn -0.2838 0.0000 -0.9589
vn -0.1433 0.0000 -0.9897
vn -0.1434 0.0000 -0.9897
vn -0.2787 0.0000 0.9604
vn -0.1408 0.0000 0.9900
vn -0.1407 0.0000 0.9901
vn 0.0000 0.0000 -1.0000
vn -0.0012 1.0000 -0.0000
vn 0.2799 0.0000 0.9600
vn 0.3178 0.0000 -0.9482
vn 0.1610 0.0000 -0.9869
vn 0.1609 0.0000 -0.9870
vn 0.0012 1.0000 0.0000
usemtl add_linea_carretera
s off
f 208/1/1 214/2/1 207/3/1 38/4/1
f 218/5/1 220/6/1 225/7/1 56/8/1
s 1
f 14/9/2 15/10/2 51/11/2 50/12/2
f 29/13/3 28/14/3 65/15/3 66/16/3
f 16/17/4 17/18/4 53/19/4 52/20/4
f 30/21/1 31/22/1 68/23/1 67/24/1
f 15/10/1 10/25/1 46/26/1 51/11/1
f 33/27/5 32/28/5 69/29/5 70/30/5
f 12/31/6 14/9/6 50/12/7 48/32/7
f 2/33/8 3/34/9 39/35/9 37/36/8
f 35/37/10 34/38/10 71/39/10 72/40/10
f 8/41/1 16/17/1 52/20/1 44/42/1
f 3/34/9 20/43/1 57/44/1 39/35/9
f 28/14/1 33/27/1 70/30/1 65/15/1
f 17/18/11 13/45/11 49/46/11 53/19/11
f 4/47/12 1/48/13 36/49/13 40/50/14
f 32/28/15 30/21/15 67/24/15 69/29/15
f 21/51/16 19/52/17 55/53/17 58/54/16
f 5/55/18 4/47/12 40/50/14 204/56/19
f 34/38/1 26/57/1 63/58/1 71/39/1
f 20/43/1 21/51/16 58/54/16 57/44/1
f 6/59/20 7/60/21 205/61/21 206/62/20
f 31/22/22 35/37/22 72/40/23 68/23/23
f 185/63/24 22/64/25 59/65/26 187/66/24
f 22/64/25 23/67/27 215/68/28 59/65/26
f 7/60/29 5/55/29 204/56/29 205/61/29
f 25/69/30 24/70/31 217/71/31 216/72/30
f 9/73/3 8/41/3 44/42/3 45/74/3
f 10/25/32 11/75/32 47/76/32 46/26/32
f 23/67/33 25/69/33 216/72/33 215/68/33
f 13/45/1 12/31/1 48/32/1 49/46/1
f 26/57/32 27/77/32 64/78/32 63/58/32
f 59/65/26 60/79/34 97/80/35 96/81/36
f 43/82/37 41/83/37 78/84/38 80/85/38
f 62/86/39 61/87/40 98/88/41 99/89/42
f 45/74/3 44/42/3 81/90/3 82/91/3
f 218/5/43 217/92/44 221/93/45 220/6/45
f 46/26/32 47/76/32 84/94/32 83/95/32
f 60/79/46 62/86/46 99/89/47 97/80/47
f 49/46/1 48/32/1 85/96/1 86/97/1
f 63/58/32 64/78/32 101/98/32 100/99/32
f 50/12/2 51/11/2 88/100/2 87/101/2
f 66/16/3 65/15/3 102/102/3 103/103/3
f 52/20/4 53/19/4 90/104/4 89/105/4
f 67/24/1 68/23/1 105/106/1 104/107/1
f 51/11/1 46/26/1 83/95/1 88/100/1
f 70/30/5 69/29/5 106/108/5 107/109/5
f 48/32/7 50/12/7 87/101/7 85/96/7
f 37/36/8 39/35/9 76/110/9 74/111/8
f 72/40/10 71/39/10 108/112/10 109/113/10
f 44/42/1 52/20/1 89/105/1 81/90/1
f 39/35/9 57/44/1 94/114/1 76/110/9
f 65/15/1 70/30/1 107/109/1 102/102/1
f 53/19/11 49/46/11 86/97/11 90/104/11
f 40/50/14 36/49/13 73/115/13 77/116/48
f 69/29/15 67/24/15 104/107/15 106/108/15
f 58/54/16 55/53/17 92/117/17 95/118/16
f 41/83/49 40/50/14 77/116/48 78/84/50
f 71/39/1 63/58/1 100/99/1 108/112/1
f 57/44/1 58/54/16 95/118/16 94/114/1
f 42/119/51 43/82/52 80/85/53 79/120/54
f 68/23/23 72/40/23 109/113/23 105/106/23
f 187/66/24 59/65/26 96/81/36 189/121/24
f 94/114/1 95/118/16 132/122/16 131/123/1
f 79/124/54 80/125/53 117/126/55 116/127/55
f 105/106/23 109/113/23 146/128/23 142/129/23
f 189/121/24 96/81/36 133/130/56 191/131/24
f 75/132/3 79/124/3 116/127/3 112/133/3
f 96/81/36 97/80/35 134/134/57 133/130/56
f 80/125/38 78/135/38 115/136/32 117/126/32
f 99/89/42 98/88/41 135/137/58 136/138/58
f 82/91/3 81/90/3 118/139/3 119/140/3
f 98/88/32 93/141/32 130/142/32 135/137/32
f 83/95/32 84/94/32 121/143/32 120/144/32
f 97/80/47 99/89/47 136/138/3 134/134/3
f 86/97/1 85/96/1 122/145/1 123/146/1
f 100/99/32 101/98/32 138/147/32 137/148/32
f 87/101/2 88/100/2 125/149/2 124/150/2
f 103/103/3 102/102/3 139/151/3 140/152/3
f 89/105/4 90/104/4 127/153/4 126/154/4
f 104/107/1 105/106/1 142/129/1 141/155/1
f 88/100/1 83/95/1 120/144/1 125/149/1
f 107/109/5 106/108/5 143/156/5 144/157/5
f 85/96/7 87/101/7 124/150/6 122/145/6
f 74/111/8 76/110/9 113/158/9 111/159/8
f 109/113/10 108/112/10 145/160/10 146/128/10
f 81/90/1 89/105/1 126/154/1 118/139/1
f 76/110/9 94/114/1 131/123/1 113/158/9
f 102/102/1 107/109/1 144/157/1 139/151/1
f 90/104/11 86/97/11 123/146/11 127/153/11
f 77/161/48 73/162/13 110/163/13 114/164/59
f 106/108/15 104/107/15 141/155/15 143/156/15
f 95/118/16 92/117/17 129/165/17 132/122/16
f 78/135/50 77/161/48 114/164/59 115/136/60
f 108/112/1 100/99/1 137/148/1 145/160/1
f 127/153/11 123/146/11 160/166/61 164/167/61
f 114/164/59 110/163/13 147/168/13 151/169/59
f 143/156/15 141/155/15 178/170/15 180/171/15
f 132/122/16 129/165/17 166/172/17 169/173/16
f 115/136/60 114/164/59 151/169/59 152/174/60
f 145/160/1 137/148/1 174/175/1 182/176/1
f 131/123/1 132/122/16 169/173/16 168/177/1
f 116/127/55 117/126/55 154/178/55 153/179/55
f 142/129/23 146/128/23 183/180/23 179/181/23
f 191/131/24 133/130/56 170/182/56 193/183/24
f 112/133/3 116/127/3 153/179/3 149/184/3
f 133/130/56 134/134/57 171/185/57 170/182/56
f 117/126/32 115/136/32 152/174/32 154/178/32
f 136/138/58 135/137/58 172/186/58 173/187/58
f 119/140/3 118/139/3 155/188/3 156/189/3
f 135/137/32 130/142/32 167/190/32 172/186/32
f 120/144/32 121/143/32 158/191/32 157/192/32
f 134/134/3 136/138/3 173/187/3 171/185/3
f 123/146/1 122/145/1 159/193/1 160/166/1
f 137/148/32 138/147/32 175/194/32 174/175/32
f 124/150/2 125/149/2 162/195/2 161/196/2
f 140/152/3 139/151/3 176/197/3 177/198/3
f 126/154/4 127/153/4 164/167/4 163/199/4
f 141/155/1 142/129/1 179/181/1 178/170/1
f 125/149/1 120/144/1 157/192/1 162/195/1
f 144/157/5 143/156/5 180/171/5 181/200/5
f 122/145/6 124/150/6 161/196/6 159/193/6
f 111/159/8 113/158/9 150/201/9 148/202/8
f 146/128/10 145/160/10 182/176/10 183/180/10
f 118/139/1 126/154/1 163/199/1 155/188/1
f 113/158/9 131/123/1 168/177/1 150/201/9
f 139/151/1 144/157/1 181/200/1 176/197/1
f 128/203/62 190/204/62 192/205/62 165/206/62
f 186/207/3 184/208/3 194/209/3 196/210/3
f 91/211/62 188/212/62 190/204/62 128/203/62
f 54/213/62 186/207/62 188/212/62 91/211/62
f 190/204/3 188/212/3 198/214/3 200/215/3
f 18/216/62 184/208/62 186/207/62 54/213/62
f 187/66/32 189/121/32 199/217/32 197/218/32
f 200/215/24 201/219/24 203/220/24 202/221/24
f 198/214/24 199/217/24 201/219/24 200/215/24
f 196/210/24 197/218/24 199/217/24 198/214/24
f 194/209/24 195/222/24 197/218/24 196/210/24
f 189/121/32 191/131/32 201/219/32 199/217/32
f 192/205/3 190/204/3 200/215/3 202/221/3
f 185/63/32 187/66/32 197/218/32 195/222/32
f 188/212/3 186/207/3 196/210/3 198/214/3
f 191/131/32 193/183/32 203/220/32 201/219/32
f 204/56/19 40/50/14 41/83/49
f 43/82/63 42/119/64 38/223/65 41/83/63
f 205/61/66 204/56/66 207/224/67 206/62/68
f 38/4/65 42/225/64 209/226/69 208/1/69
f 42/225/51 79/227/54 210/228/1 209/226/1
f 79/227/45 75/229/45 211/230/45 210/228/45
f 204/56/19 41/83/49 38/223/70 207/224/70
f 215/68/28 60/79/34 59/65/26
f 216/72/71 217/71/44 218/231/43 215/68/71
f 62/86/72 60/79/72 56/232/73 61/87/74
f 60/79/34 215/68/28 218/231/75 56/232/75
f 61/233/74 56/8/73 225/7/69 224/234/69
f 217/92/31 24/235/31 219/236/1 221/93/1
f 98/237/41 61/233/40 224/234/1 223/238/1
f 93/239/45 98/237/45 223/238/45 222/240/45
f 206/241/68 207/3/67 214/2/45 213/242/45
f 6/243/20 206/241/20 213/242/1 212/244/1
