# Blender v2.80 (sub 74) OBJ File: 'linea_carretera.blend'
# www.blender.org
mtllib add_doquin.mtl
o Plane.010_Plane.009
v 0.855946 -0.037700 -5.255955
v 0.855946 -0.037700 8.940334
v 0.744328 -0.037700 -5.255955
v 0.744328 -0.037700 8.940334
v 5.668411 -0.037700 8.940334
v 0.378197 0.006106 -5.255955
v 0.378197 0.006106 8.940334
v 2.460102 0.022008 8.940334
v 4.064259 -0.039229 8.940334
v 4.064255 -0.039229 -5.255955
v 2.460102 0.022008 -5.255955
v 0.855946 -0.037700 3.042610
v 5.668411 -0.037700 3.042610
v 2.460102 0.022008 3.042610
v 4.064255 -0.039229 3.042610
v 0.744328 -0.037700 1.842190
v 0.378197 0.006106 1.842190
v 5.668411 0.087967 3.042610
v 5.668411 0.087967 8.940334
v 4.064259 0.086438 8.940334
v 5.668411 0.087967 -5.255955
v 4.064255 0.086438 -5.255955
v 4.064255 0.086438 3.042610
v 0.855946 -0.028624 -5.255955
v 0.855946 -0.028624 8.940334
v 0.855946 -0.059771 -5.255955
v 0.855946 -0.059771 8.940334
v 0.744328 -0.028624 -5.255955
v 0.744328 -0.028624 8.940334
v 0.744328 -0.059771 -5.255955
v 0.744328 -0.059771 8.940334
v 0.764015 -0.059427 -5.255955
v 0.764015 -0.059427 8.940334
v 0.808796 -0.059427 -5.255955
v 0.808796 -0.059427 8.940334
v 0.758732 -0.036945 8.940334
v 0.748383 -0.028624 8.940334
v 0.748383 -0.028624 -5.255955
v 0.758732 -0.036945 -5.255955
v 0.814423 -0.036928 -5.255955
v 0.824909 -0.028624 -5.255955
v 0.824909 -0.028624 8.940334
v 0.814423 -0.036928 8.940334
v 2.460102 0.022008 -0.891014
v 4.460518 -0.039229 2.093906
v 0.855946 -0.037700 -0.891014
v 5.668411 -0.037700 1.891228
v 4.460518 0.086438 2.093906
v 5.668411 0.087967 1.891228
v 0.855946 -0.037700 4.208237
v 0.855946 -0.037700 6.574287
v 5.668411 -0.037700 4.208237
v 5.668411 -0.037700 6.574287
v 2.460102 0.022008 6.574287
v 2.460102 0.022008 4.208237
v 4.064259 -0.039229 6.574287
v 4.064255 -0.039229 4.208237
v 5.668411 0.087967 4.208237
v 5.668411 0.087967 6.574287
v 4.064259 0.086438 6.574287
v 4.064255 0.086438 4.208237
v 0.744328 -0.037700 -0.523857
v 0.744328 -0.037700 -2.889908
v 0.378197 0.006106 -2.889908
v 0.378197 0.006106 -0.523857
v 0.855946 -0.028624 1.842190
v 0.855946 -0.059771 1.842190
v 0.744328 -0.028624 1.842190
v 0.744328 -0.059771 1.842190
v 0.764015 -0.059427 1.842190
v 0.808796 -0.059427 1.842190
v 0.758732 -0.036945 1.842190
v 0.748383 -0.028624 1.842190
v 0.824909 -0.028624 1.842190
v 0.814423 -0.036928 1.842190
v 0.744328 -0.028624 -0.523857
v 0.744328 -0.028624 -2.889908
v 0.744328 -0.059771 -0.523857
v 0.744328 -0.059771 -2.889908
v 0.764015 -0.059427 -0.523857
v 0.764015 -0.059427 -2.889908
v 0.808796 -0.059427 -0.523857
v 0.808796 -0.059427 -2.889908
v 0.758732 -0.036945 -0.523857
v 0.758732 -0.036945 -2.889908
v 0.824909 -0.028624 -0.523857
v 0.824909 -0.028624 -2.889908
v 0.855946 -0.028624 -2.889908
v 0.855946 -0.028624 -0.523857
v 0.855946 -0.059771 -2.889908
v 0.855946 -0.059771 -0.523857
v 0.748383 -0.028624 -2.889908
v 0.748383 -0.028624 -0.523857
v 0.814423 -0.036928 -2.889908
v 0.814423 -0.036928 -0.523857
v 0.378197 0.006106 4.208237
v 0.378197 0.006106 6.574287
v 0.744328 -0.037700 6.574287
v 0.744328 -0.037700 4.208237
v 0.855946 -0.028624 4.208237
v 0.855946 -0.028624 6.574287
v 0.855946 -0.059771 4.208237
v 0.855946 -0.059771 6.574287
v 0.748383 -0.028624 4.208237
v 0.748383 -0.028624 6.574287
v 0.814423 -0.036928 4.208237
v 0.814423 -0.036928 6.574287
v 0.744328 -0.028624 6.574287
v 0.744328 -0.028624 4.208237
v 0.744328 -0.059771 6.574287
v 0.744328 -0.059771 4.208237
v 0.764015 -0.059427 6.574287
v 0.764015 -0.059427 4.208237
v 0.808796 -0.059427 6.574287
v 0.808796 -0.059427 4.208237
v 0.758732 -0.036945 6.574287
v 0.758732 -0.036945 4.208237
v 0.824909 -0.028624 6.574287
v 0.824909 -0.028624 4.208237
v -0.834724 -0.037700 -5.255955
v -0.834724 -0.037700 8.940334
v -0.723106 -0.037700 -5.255955
v -0.723106 -0.037700 8.940334
v -5.647190 -0.037700 8.940334
v -0.356976 0.006106 -5.255955
v -0.356976 0.006106 8.940334
v -2.438881 0.022008 8.940334
v -4.043034 -0.039229 8.940334
v -4.043034 -0.039229 -5.255955
v -2.438881 0.022008 -5.255955
v -0.834724 -0.037700 3.062771
v -5.647190 -0.037700 3.062771
v -2.438881 0.022008 3.062771
v -4.043034 -0.039229 3.062771
v -0.723106 -0.037700 1.842190
v -0.356976 0.006106 1.842190
v -5.647190 0.087967 3.062771
v -5.647190 0.087967 8.940334
v -4.043034 0.086438 8.940334
v -5.647190 0.087967 -5.255955
v -4.043034 0.086438 -5.255955
v -4.043034 0.086438 3.062771
v -0.834724 -0.028624 -5.255955
v -0.834724 -0.028624 8.940334
v -0.834724 -0.059771 -5.255955
v -0.834724 -0.059771 8.940334
v -0.723106 -0.028624 -5.255955
v -0.723106 -0.028624 8.940334
v -0.723106 -0.059771 -5.255955
v -0.723106 -0.059771 8.940334
v -0.742794 -0.059427 -5.255955
v -0.742794 -0.059427 8.940334
v -0.787571 -0.059427 -5.255955
v -0.787571 -0.059427 8.940334
v -0.737511 -0.036945 8.940334
v -0.727158 -0.028624 8.940334
v -0.727158 -0.028624 -5.255955
v -0.737511 -0.036945 -5.255955
v -0.793198 -0.036928 -5.255955
v -0.803688 -0.028624 -5.255955
v -0.803688 -0.028624 8.940334
v -0.793198 -0.036928 8.940334
v -2.438881 0.022008 -0.872051
v -4.558491 -0.039229 2.191257
v -0.834724 -0.037700 -0.872051
v -5.647190 -0.037700 1.900024
v -4.558491 0.086438 2.191257
v -5.647190 0.087967 1.900024
v -0.834724 -0.037700 4.208237
v -0.834724 -0.037700 6.574287
v -5.647190 -0.037700 4.208237
v -5.647190 -0.037700 6.574287
v -2.438881 0.022008 6.574287
v -2.438881 0.022008 4.208237
v -4.043034 -0.039229 6.574287
v -4.043034 -0.039229 4.208237
v -5.647190 0.087967 4.208237
v -5.647190 0.087967 6.574287
v -4.043034 0.086438 6.574287
v -4.043034 0.086438 4.208237
v -0.723106 -0.037700 -0.523857
v -0.723106 -0.037700 -2.889908
v -0.356976 0.006106 -2.889908
v -0.356976 0.006106 -0.523857
v -0.834724 -0.028624 1.842190
v -0.834724 -0.059771 1.842190
v -0.723106 -0.028624 1.842190
v -0.723106 -0.059771 1.842190
v -0.742794 -0.059427 1.842190
v -0.787571 -0.059427 1.842190
v -0.737511 -0.036945 1.842190
v -0.727158 -0.028624 1.842190
v -0.803688 -0.028624 1.842190
v -0.793198 -0.036928 1.842190
v -0.723106 -0.028624 -0.523857
v -0.723106 -0.028624 -2.889908
v -0.723106 -0.059771 -0.523857
v -0.723106 -0.059771 -2.889908
v -0.742794 -0.059427 -0.523857
v -0.742794 -0.059427 -2.889908
v -0.787571 -0.059427 -0.523857
v -0.787571 -0.059427 -2.889908
v -0.737511 -0.036945 -0.523857
v -0.737511 -0.036945 -2.889908
v -0.803688 -0.028624 -0.523857
v -0.803688 -0.028624 -2.889908
v -0.834724 -0.028624 -2.889908
v -0.834724 -0.028624 -0.523857
v -0.834724 -0.059771 -2.889908
v -0.834724 -0.059771 -0.523857
v -0.727158 -0.028624 -2.889908
v -0.727158 -0.028624 -0.523857
v -0.793198 -0.036928 -2.889908
v -0.793198 -0.036928 -0.523857
v -0.356976 0.006106 4.208237
v -0.356976 0.006106 6.574287
v -0.723106 -0.037700 6.574287
v -0.723106 -0.037700 4.208237
v -0.834724 -0.028624 4.208237
v -0.834724 -0.028624 6.574287
v -0.834724 -0.059771 4.208237
v -0.834724 -0.059771 6.574287
v -0.727158 -0.028624 4.208237
v -0.727158 -0.028624 6.574287
v -0.793198 -0.036928 4.208237
v -0.793198 -0.036928 6.574287
v -0.723106 -0.028624 6.574287
v -0.723106 -0.028624 4.208237
v -0.723106 -0.059771 6.574287
v -0.723106 -0.059771 4.208237
v -0.742794 -0.059427 6.574287
v -0.742794 -0.059427 4.208237
v -0.787571 -0.059427 6.574287
v -0.787571 -0.059427 4.208237
v -0.737511 -0.036945 6.574287
v -0.737511 -0.036945 4.208237
v -0.803688 -0.028624 6.574287
v -0.803688 -0.028624 4.208237
v 0.010612 0.008130 -5.255955
v 0.010612 0.008130 8.940334
v 0.010612 0.008130 1.842190
v 0.010612 0.008130 -0.523857
v 0.010612 0.008130 -2.889908
v 0.010612 0.008130 6.574287
v 0.010612 0.008130 4.208237
v 5.668411 -0.037700 -4.098148
v 5.668411 0.087967 -4.098148
v 4.463116 0.086438 -4.383980
v 4.463116 -0.039229 -4.383980
v -5.647190 -0.037700 -4.109901
v -5.647190 0.087967 -4.109901
v -4.571377 0.086438 -4.357319
v -4.571377 -0.039229 -4.357319
v 23.252037 -0.037700 3.042610
v 23.252037 0.087967 3.042610
v 23.252037 0.087967 -5.255955
v 23.252037 -0.037700 -4.098148
v 23.252037 -0.037700 1.891228
v 23.252037 0.087967 -4.098148
v 23.252037 0.087967 1.891228
v -23.230812 -0.037700 3.062771
v -23.230812 0.087967 3.062771
v -23.230812 0.087967 -5.255955
v -23.230812 -0.037700 -4.109901
v -23.230812 -0.037700 1.900024
v -23.230812 0.087967 -4.109901
v -23.230812 0.087967 1.900024
vt 0.038512 0.861783
vt 0.038512 0.399322
vt 0.196577 0.399322
vt 0.196577 0.861783
vt 0.253895 0.463383
vt 0.253896 0.399239
vt 0.263861 0.399239
vt 0.263861 0.463383
vt 0.243899 0.463383
vt 0.243899 0.399239
vt 0.501907 0.879113
vt 0.506635 0.944303
vt 0.462481 0.947512
vt 0.457981 0.882139
vt 0.418106 0.950753
vt 0.413852 0.885090
vt 0.453063 0.678525
vt 0.452407 0.785081
vt 0.407979 0.785913
vt 0.395156 0.760738
vt 0.495404 0.680855
vt 0.495591 0.783600
vt 0.243898 0.655815
vt 0.243898 0.591671
vt 0.253895 0.591671
vt 0.253895 0.655815
vt 0.263860 0.591671
vt 0.263861 0.655815
vt 0.410353 0.885294
vt 0.414617 0.950982
vt 0.369864 0.954186
vt 0.365321 0.888081
vt 0.404329 0.786974
vt 0.392857 0.763295
vt 0.357515 0.821421
vt 0.355640 0.787799
vt 0.359264 0.787596
vt 0.361102 0.821209
vt 0.243299 0.861949
vt 0.235229 0.861866
vt 0.235229 0.399405
vt 0.243299 0.399488
vt 0.329193 0.447870
vt 0.329219 0.399255
vt 0.330065 0.399251
vt 0.330041 0.447867
vt 0.331738 0.447861
vt 0.331759 0.399242
vt 0.332608 0.399239
vt 0.332587 0.447859
vt 0.324900 0.642491
vt 0.325746 0.642492
vt 0.325784 0.690977
vt 0.324941 0.690974
vt 0.330889 0.447862
vt 0.330912 0.399244
vt 0.328272 0.447868
vt 0.328300 0.399255
vt 0.327424 0.447871
vt 0.327453 0.399259
vt 0.327437 0.642480
vt 0.327470 0.690962
vt 0.326628 0.690969
vt 0.326592 0.642486
vt 0.330893 0.642468
vt 0.330919 0.690943
vt 0.330075 0.690950
vt 0.330048 0.642474
vt 0.325729 0.447882
vt 0.325762 0.399272
vt 0.326607 0.399265
vt 0.326576 0.447876
vt 0.362269 0.751478
vt 0.425289 0.556476
vt 0.409213 0.574936
vt 0.379198 0.582496
vt 0.381945 0.549187
vt 0.427495 0.558372
vt 0.411026 0.577772
vt 0.506635 0.569947
vt 0.465847 0.565817
vt 0.410571 0.819002
vt 0.406945 0.819242
vt 0.366353 0.954428
vt 0.361789 0.888315
vt 0.454025 0.816723
vt 0.497300 0.814524
vt 0.243898 0.527527
vt 0.253895 0.527527
vt 0.263861 0.527527
vt 0.325725 0.593891
vt 0.325715 0.545255
vt 0.326561 0.545249
vt 0.326570 0.593885
vt 0.330873 0.496564
vt 0.330868 0.545233
vt 0.330021 0.545239
vt 0.330025 0.496570
vt 0.327409 0.496574
vt 0.327406 0.545244
vt 0.326562 0.496579
vt 0.327416 0.593879
vt 0.328254 0.545240
vt 0.328262 0.593876
vt 0.329174 0.545242
vt 0.329181 0.593877
vt 0.330874 0.593868
vt 0.331715 0.545232
vt 0.331721 0.593866
vt 0.324868 0.496583
vt 0.325716 0.496585
vt 0.324867 0.545254
vt 0.332564 0.545230
vt 0.332569 0.593863
vt 0.330028 0.593873
vt 0.329230 0.690955
vt 0.329201 0.642478
vt 0.331763 0.690939
vt 0.331739 0.642466
vt 0.332586 0.642464
vt 0.332608 0.690936
vt 0.328314 0.690956
vt 0.328283 0.642477
vt 0.324878 0.593890
vt 0.253896 0.784104
vt 0.253895 0.719959
vt 0.263861 0.719959
vt 0.263861 0.784104
vt 0.243899 0.784104
vt 0.243899 0.719959
vt 0.324914 0.399268
vt 0.324879 0.447880
vt 0.328257 0.496571
vt 0.329177 0.496573
vt 0.331721 0.496564
vt 0.332570 0.496561
vt 0.273826 0.463383
vt 0.273826 0.399239
vt 0.283823 0.463383
vt 0.283823 0.399239
vt 0.952078 0.074187
vt 0.909280 0.071067
vt 0.913984 0.007444
vt 0.956952 0.010758
vt 0.866337 0.067938
vt 0.870822 0.004079
vt 0.903288 0.271698
vt 0.843732 0.186630
vt 0.858964 0.163988
vt 0.903286 0.165182
vt 0.946322 0.269688
vt 0.945929 0.166810
vt 0.283823 0.655815
vt 0.273826 0.655815
vt 0.273826 0.591671
vt 0.283823 0.591671
vt 0.862931 0.067714
vt 0.819216 0.064791
vt 0.823920 0.000550
vt 0.867429 0.003838
vt 0.841681 0.184141
vt 0.855527 0.162695
vt 0.811329 0.129403
vt 0.814792 0.129629
vt 0.812840 0.161370
vt 0.809357 0.161153
vt 0.204648 0.861866
vt 0.204648 0.399405
vt 0.337528 0.642357
vt 0.338376 0.642361
vt 0.338395 0.690980
vt 0.337549 0.690974
vt 0.340073 0.642367
vt 0.340923 0.642370
vt 0.340938 0.690996
vt 0.340089 0.690993
vt 0.333236 0.447734
vt 0.333271 0.399241
vt 0.334115 0.399239
vt 0.334082 0.447733
vt 0.339224 0.642367
vt 0.339241 0.690990
vt 0.336608 0.642359
vt 0.336630 0.690974
vt 0.335759 0.642356
vt 0.335783 0.690968
vt 0.335773 0.447746
vt 0.334927 0.447740
vt 0.334958 0.399252
vt 0.335801 0.399263
vt 0.339229 0.447759
vt 0.338383 0.447753
vt 0.338406 0.399277
vt 0.339249 0.399288
vt 0.334064 0.642344
vt 0.334911 0.642351
vt 0.334937 0.690959
vt 0.334093 0.690946
vt 0.815214 0.195372
vt 0.871289 0.398299
vt 0.823562 0.405476
vt 0.821212 0.369296
vt 0.851126 0.377451
vt 0.873597 0.396085
vt 0.853041 0.374314
vt 0.956952 0.385532
vt 0.914533 0.389424
vt 0.858926 0.132098
vt 0.862490 0.132409
vt 0.820507 0.000299
vt 0.815787 0.064548
vt 0.905020 0.134895
vt 0.947466 0.137094
vt 0.273826 0.527527
vt 0.283823 0.527527
vt 0.334064 0.496335
vt 0.334909 0.496342
vt 0.334901 0.544979
vt 0.334055 0.544971
vt 0.339211 0.593664
vt 0.338364 0.593659
vt 0.338361 0.544989
vt 0.339208 0.544996
vt 0.335748 0.593653
vt 0.334901 0.593648
vt 0.335747 0.544984
vt 0.335754 0.496348
vt 0.336601 0.496352
vt 0.336594 0.544988
vt 0.337520 0.496350
vt 0.337514 0.544986
vt 0.339213 0.496360
vt 0.340060 0.496361
vt 0.340055 0.544997
vt 0.333207 0.593643
vt 0.333207 0.544973
vt 0.334055 0.593641
vt 0.340908 0.496364
vt 0.340904 0.544999
vt 0.338367 0.496354
vt 0.337561 0.399270
vt 0.337537 0.447749
vt 0.340093 0.399291
vt 0.340938 0.399295
vt 0.340922 0.447764
vt 0.340075 0.447760
vt 0.336644 0.399270
vt 0.336619 0.447750
vt 0.333217 0.496336
vt 0.273827 0.784104
vt 0.273827 0.719959
vt 0.283823 0.784104
vt 0.283823 0.719959
vt 0.333244 0.690949
vt 0.333215 0.642346
vt 0.336596 0.593657
vt 0.337516 0.593655
vt 0.340059 0.593665
vt 0.340908 0.593668
vt 0.380136 0.586062
vt 0.363762 0.747736
vt 0.778627 0.537104
vt 0.786696 0.537187
vt 0.786697 0.999617
vt 0.778627 0.999534
vt 0.816696 0.198733
vt 0.822319 0.365374
vt 0.030442 0.861700
vt 0.000300 0.861700
vt 0.000299 0.399239
vt 0.030442 0.399239
vt 0.816977 0.537187
vt 0.825046 0.537270
vt 0.825046 0.999701
vt 0.816977 0.999617
vt 0.582593 0.537021
vt 0.613043 0.537021
vt 0.613043 0.999451
vt 0.582594 0.999451
vt 0.621112 0.537104
vt 0.621113 0.999534
vn 0.0000 1.0000 0.0000
vn 0.0623 0.9981 0.0000
vn 0.1188 0.9929 0.0000
vn -0.0372 0.9993 0.0000
vn 0.0005 1.0000 0.0000
vn 0.0381 0.9993 0.0000
vn -0.0031 1.0000 0.0000
vn -0.0011 1.0000 0.0006
vn 0.0346 0.9994 0.0014
vn 0.0205 0.9998 0.0013
vn -0.0010 1.0000 0.0000
vn -0.9227 0.0000 -0.3854
vn -0.9805 0.0000 -0.1965
vn 1.0000 0.0000 0.0000
vn -1.0000 0.0000 0.0000
vn 0.0000 0.0000 1.0000
vn -0.9701 0.2426 0.0000
vn 0.9735 0.2288 0.0000
vn 0.6266 0.7793 0.0000
vn -0.6208 0.7840 0.0000
vn -0.0011 1.0000 -0.0002
vn -0.0010 1.0000 -0.0001
vn -0.0007 1.0000 -0.0001
vn -0.0005 1.0000 -0.0001
vn -0.0011 1.0000 0.0002
vn -0.0005 1.0000 0.0001
vn -0.0006 1.0000 0.0001
vn -0.9094 0.0000 0.4160
vn -0.0028 1.0000 -0.0012
vn 0.0206 0.9998 -0.0013
vn 0.0316 0.9995 -0.0024
vn -0.0623 0.9981 0.0000
vn -0.1188 0.9929 0.0000
vn 0.0372 0.9993 0.0000
vn -0.0005 1.0000 0.0000
vn -0.0381 0.9993 0.0000
vn 0.0040 1.0000 0.0001
vn -0.0194 0.9998 0.0017
vn -0.0336 0.9994 0.0019
vn 0.0015 1.0000 0.0008
vn 0.0010 1.0000 0.0000
vn 0.8607 0.0000 -0.5091
vn 0.1303 0.0000 -0.9915
vn 0.1304 0.0000 -0.9915
vn 0.0000 0.0000 -1.0000
vn 0.9701 0.2426 0.0000
vn -0.9735 0.2288 0.0000
vn -0.6265 0.7795 0.0000
vn 0.6206 0.7841 0.0000
vn 0.0012 1.0000 -0.0003
vn 0.0005 1.0000 -0.0001
vn 0.0007 1.0000 -0.0001
vn 0.0010 1.0000 -0.0001
vn 0.0012 1.0000 0.0003
vn 0.0006 1.0000 0.0002
vn 0.0005 1.0000 0.0001
vn 0.8620 0.0000 0.5068
vn 0.0036 1.0000 -0.0015
vn -0.0300 0.9995 -0.0030
vn -0.0191 0.9998 -0.0016
vn -0.1161 0.0000 0.9932
vn -0.2307 0.0000 0.9730
vn -0.1162 0.0000 0.9932
vn -0.0830 0.0000 -0.9965
vn -0.0831 0.0000 -0.9965
vn -0.1655 0.0000 -0.9862
vn -0.0007 1.0000 -0.0000
vn 0.2584 0.0000 -0.9660
vn 0.1127 0.0000 0.9936
vn 0.1128 0.0000 0.9936
vn 0.2241 0.0000 0.9746
vn 0.0014 1.0000 -0.0000
usemtl add_linea_carretera
s off
f 250/1/1 264/2/1 265/3/1 166/4/1
s 1
f 64/5/2 6/6/2 239/7/1 243/8/1
f 63/9/3 3/10/3 6/6/2 64/5/2
f 51/11/4 2/12/4 8/13/5 54/14/5
f 54/14/5 8/13/5 9/15/6 56/16/6
f 44/17/7 14/18/8 15/19/9 45/20/10
f 46/21/4 12/22/4 14/18/8 44/17/7
f 99/23/3 16/24/3 17/25/2 96/26/2
f 96/26/2 17/25/2 241/27/1 245/28/1
f 60/29/11 20/30/11 19/31/11 59/32/11
f 45/20/12 15/19/13 23/33/13 48/34/12
f 52/35/14 13/36/14 18/37/14 58/38/14
f 56/16/15 9/15/15 20/30/15 60/29/15
f 132/39/16 137/40/16 262/41/16 261/42/16
f 114/43/17 35/44/17 43/45/17 107/46/17
f 101/47/14 25/48/14 27/49/14 103/50/14
f 79/51/15 77/52/15 28/53/15 30/54/15
f 118/55/1 42/56/1 25/48/1 101/47/1
f 112/57/1 33/58/1 35/44/1 114/43/1
f 116/59/18 36/60/18 33/58/18 112/57/18
f 85/61/19 39/62/19 38/63/19 92/64/19
f 87/65/20 41/66/20 40/67/20 94/68/20
f 108/69/1 29/70/1 37/71/1 105/72/1
f 48/34/21 23/33/22 18/37/23 49/73/24
f 22/74/25 248/75/25 247/76/26 21/77/27
f 10/78/28 249/79/28 248/75/28 22/74/28
f 1/80/4 46/21/4 44/17/7 11/81/29
f 11/81/29 44/17/7 249/79/30 10/78/31
f 15/19/13 57/82/15 61/83/15 23/33/13
f 57/82/15 56/16/15 60/29/15 61/83/15
f 5/84/14 53/85/14 59/32/14 19/31/14
f 53/85/14 52/35/14 58/38/14 59/32/14
f 23/33/22 61/83/11 58/38/11 18/37/23
f 61/83/11 60/29/11 59/32/11 58/38/11
f 14/18/8 55/86/5 57/82/6 15/19/9
f 55/86/5 54/14/5 56/16/6 57/82/6
f 12/22/4 50/87/4 55/86/5 14/18/8
f 50/87/4 51/11/4 54/14/5 55/86/5
f 16/24/3 62/88/3 65/89/2 17/25/2
f 62/88/3 63/9/3 64/5/2 65/89/2
f 17/25/2 65/89/2 242/90/1 241/27/1
f 65/89/2 64/5/2 243/8/1 242/90/1
f 76/91/1 68/92/1 73/93/1 93/94/1
f 119/95/20 74/96/20 75/97/20 106/98/20
f 117/99/19 72/100/19 73/93/19 104/101/19
f 84/102/18 72/100/18 70/103/18 80/104/18
f 80/104/1 70/103/1 71/105/1 82/106/1
f 86/107/1 74/96/1 66/108/1 89/109/1
f 111/110/15 109/111/15 68/92/15 69/112/15
f 89/109/14 66/108/14 67/113/14 91/114/14
f 82/106/17 71/105/17 75/97/17 95/115/17
f 34/116/17 83/117/17 94/68/17 40/67/17
f 83/117/17 82/106/17 95/115/17 94/68/17
f 24/118/14 88/119/14 90/120/14 26/121/14
f 88/119/14 89/109/14 91/114/14 90/120/14
f 41/66/1 87/65/1 88/119/1 24/118/1
f 87/65/1 86/107/1 89/109/1 88/119/1
f 32/122/1 81/123/1 83/117/1 34/116/1
f 81/123/1 80/104/1 82/106/1 83/117/1
f 39/62/18 85/61/18 81/123/18 32/122/18
f 85/61/18 84/102/18 80/104/18 81/123/18
f 28/53/1 77/52/1 92/64/1 38/63/1
f 77/52/1 76/91/1 93/94/1 92/64/1
f 74/96/20 86/107/20 95/115/20 75/97/20
f 86/107/20 87/65/20 94/68/20 95/115/20
f 72/100/19 84/102/19 93/94/19 73/93/19
f 84/102/19 85/61/19 92/64/19 93/94/19
f 69/112/15 68/92/15 76/91/15 78/124/15
f 78/124/15 76/91/15 77/52/15 79/51/15
f 7/125/2 97/126/2 244/127/1 240/128/1
f 97/126/2 96/26/2 245/28/1 244/127/1
f 4/129/3 98/130/3 97/126/2 7/125/2
f 98/130/3 99/23/3 96/26/2 97/126/2
f 31/131/15 29/70/15 108/69/15 110/132/15
f 110/132/15 108/69/15 109/111/15 111/110/15
f 36/60/19 116/59/19 105/72/19 37/71/19
f 116/59/19 117/99/19 104/101/19 105/72/19
f 42/56/20 118/55/20 107/46/20 43/45/20
f 118/55/20 119/95/20 106/98/20 107/46/20
f 68/92/1 109/111/1 104/101/1 73/93/1
f 109/111/1 108/69/1 105/72/1 104/101/1
f 72/100/18 117/99/18 113/133/18 70/103/18
f 117/99/18 116/59/18 112/57/18 113/133/18
f 70/103/1 113/133/1 115/134/1 71/105/1
f 113/133/1 112/57/1 114/43/1 115/134/1
f 74/96/1 119/95/1 100/135/1 66/108/1
f 119/95/1 118/55/1 101/47/1 100/135/1
f 66/108/14 100/135/14 102/136/14 67/113/14
f 100/135/14 101/47/14 103/50/14 102/136/14
f 71/105/17 115/134/17 106/98/17 75/97/17
f 115/134/17 114/43/17 107/46/17 106/98/17
f 183/137/32 243/8/1 239/7/1 125/138/32
f 182/139/33 183/137/32 125/138/32 122/140/33
f 170/141/34 173/142/35 127/143/35 121/144/34
f 173/142/35 175/145/36 128/146/36 127/143/35
f 163/147/37 164/148/38 134/149/39 133/150/40
f 165/151/34 163/147/37 133/150/40 131/152/34
f 218/153/33 215/154/32 136/155/32 135/156/33
f 215/154/32 245/28/1 241/27/1 136/155/32
f 179/157/41 178/158/41 138/159/41 139/160/41
f 164/148/42 167/161/42 142/162/42 134/149/42
f 171/163/15 177/164/15 137/165/15 132/166/15
f 175/145/14 179/157/14 139/160/14 128/146/14
f 168/167/43 166/4/44 265/3/45 267/168/45
f 233/169/46 226/170/46 162/171/46 154/172/46
f 220/173/15 222/174/15 146/175/15 144/176/15
f 198/177/14 149/178/14 147/179/14 196/180/14
f 237/181/1 220/173/1 144/176/1 161/182/1
f 231/183/1 233/169/1 154/172/1 152/184/1
f 235/185/47 231/183/47 152/184/47 155/186/47
f 204/187/48 211/188/48 157/189/48 158/190/48
f 206/191/49 213/192/49 159/193/49 160/194/49
f 227/195/1 224/196/1 156/197/1 148/198/1
f 167/161/50 168/199/51 137/165/52 142/162/53
f 141/200/54 140/201/55 251/202/56 252/203/54
f 129/204/57 141/200/57 252/203/57 253/205/57
f 120/206/34 130/207/58 163/147/37 165/151/34
f 130/207/58 129/204/59 253/205/60 163/147/37
f 134/149/14 142/162/14 180/208/14 176/209/14
f 176/209/14 180/208/14 179/157/14 175/145/14
f 124/210/15 138/159/15 178/158/15 172/211/15
f 172/211/15 178/158/15 177/164/15 171/163/15
f 142/162/53 137/165/52 177/164/41 180/208/41
f 180/208/41 177/164/41 178/158/41 179/157/41
f 133/150/40 134/149/39 176/209/36 174/212/35
f 174/212/35 176/209/36 175/145/36 173/142/35
f 131/152/34 133/150/40 174/212/35 169/213/34
f 169/213/34 174/212/35 173/142/35 170/141/34
f 135/156/33 136/155/32 184/214/32 181/215/33
f 181/215/33 184/214/32 183/137/32 182/139/33
f 136/155/32 241/27/1 242/90/1 184/214/32
f 184/214/32 242/90/1 243/8/1 183/137/32
f 195/216/1 212/217/1 192/218/1 187/219/1
f 238/220/49 225/221/49 194/222/49 193/223/49
f 236/224/48 223/225/48 192/218/48 191/226/48
f 203/227/47 199/228/47 189/229/47 191/226/47
f 199/228/1 201/230/1 190/231/1 189/229/1
f 205/232/1 208/233/1 185/234/1 193/223/1
f 230/235/14 188/236/14 187/219/14 228/237/14
f 208/233/15 210/238/15 186/239/15 185/234/15
f 201/230/46 214/240/46 194/222/46 190/231/46
f 153/241/46 159/193/46 213/192/46 202/242/46
f 202/242/46 213/192/46 214/240/46 201/230/46
f 143/243/15 145/244/15 209/245/15 207/246/15
f 207/246/15 209/245/15 210/238/15 208/233/15
f 160/194/1 143/243/1 207/246/1 206/191/1
f 206/191/1 207/246/1 208/233/1 205/232/1
f 151/247/1 153/241/1 202/242/1 200/248/1
f 200/248/1 202/242/1 201/230/1 199/228/1
f 158/190/47 151/247/47 200/248/47 204/187/47
f 204/187/47 200/248/47 199/228/47 203/227/47
f 147/179/1 157/189/1 211/188/1 196/180/1
f 196/180/1 211/188/1 212/217/1 195/216/1
f 193/223/49 194/222/49 214/240/49 205/232/49
f 205/232/49 214/240/49 213/192/49 206/191/49
f 191/226/48 192/218/48 212/217/48 203/227/48
f 203/227/48 212/217/48 211/188/48 204/187/48
f 188/236/14 197/249/14 195/216/14 187/219/14
f 197/249/14 198/177/14 196/180/14 195/216/14
f 126/250/32 240/128/1 244/127/1 216/251/32
f 216/251/32 244/127/1 245/28/1 215/154/32
f 123/252/33 126/250/32 216/251/32 217/253/33
f 217/253/33 216/251/32 215/154/32 218/153/33
f 150/254/14 229/255/14 227/195/14 148/198/14
f 229/255/14 230/235/14 228/237/14 227/195/14
f 155/186/48 156/197/48 224/196/48 235/185/48
f 235/185/48 224/196/48 223/225/48 236/224/48
f 161/182/49 162/171/49 226/170/49 237/181/49
f 237/181/49 226/170/49 225/221/49 238/220/49
f 187/219/1 192/218/1 223/225/1 228/237/1
f 228/237/1 223/225/1 224/196/1 227/195/1
f 191/226/47 189/229/47 232/256/47 236/224/47
f 236/224/47 232/256/47 231/183/47 235/185/47
f 189/229/1 190/231/1 234/257/1 232/256/1
f 232/256/1 234/257/1 233/169/1 231/183/1
f 193/223/1 185/234/1 219/258/1 238/220/1
f 238/220/1 219/258/1 220/173/1 237/181/1
f 185/234/15 186/239/15 221/259/15 219/258/15
f 219/258/15 221/259/15 222/174/15 220/173/15
f 190/231/46 194/222/46 225/221/46 234/257/46
f 234/257/46 225/221/46 226/170/46 233/169/46
f 249/79/30 44/17/7 45/20/10
f 247/76/61 248/75/62 249/79/62 246/260/63
f 49/73/64 47/261/65 45/20/66 48/34/66
f 45/20/10 47/261/67 246/260/67 249/79/30
f 47/262/65 49/263/64 260/264/45 258/265/45
f 253/205/60 164/148/38 163/147/37
f 168/199/43 167/161/68 164/148/68 166/266/44
f 251/202/69 250/267/70 253/205/71 252/203/71
f 251/268/56 140/269/55 263/270/1 266/271/1
f 137/40/52 168/167/51 267/168/1 262/41/1
f 18/272/16 13/273/16 254/274/16 255/275/16
f 21/276/27 247/277/26 259/278/1 256/279/1
f 250/1/70 251/268/69 266/271/16 264/2/16
f 49/263/24 18/272/23 255/275/1 260/264/1
f 247/277/61 246/280/63 257/281/16 259/278/16
f 246/280/67 47/262/67 258/265/1 257/281/1
f 253/205/60 250/267/72 166/266/72 164/148/38
