# Blender v2.80 (sub 57) OBJ File: 'linea_carretera.blend'
# www.blender.org
mtllib DV.mtl
o Plane.002
v 4.395017 -0.058461 -6.745077
v 4.283400 -0.058461 -6.745077
v 9.207482 -0.058461 -6.745077
v 3.917267 -0.014655 -6.745077
v 5.999172 0.001247 -6.745077
v 7.603328 -0.059990 -6.745077
v 9.207482 0.067206 -6.745077
v 7.603328 0.065677 -6.745077
v 4.395017 -0.049385 -6.745077
v 4.395017 -0.080532 -6.745077
v 4.283400 -0.049385 -6.745077
v 4.283400 -0.080532 -6.745077
v 4.303087 -0.080188 -6.745077
v 4.347864 -0.080188 -6.745077
v 4.297802 -0.057706 -6.745077
v 4.287451 -0.049385 -6.745077
v 4.363980 -0.049385 -6.745077
v 4.353492 -0.057688 -6.745077
v 2.707253 -0.058461 -6.745077
v 2.818871 -0.058461 -6.745077
v -9.683549 -0.058461 -6.745077
v 3.551135 -0.012631 -6.745077
v 3.185003 -0.014655 -6.745077
v -1.576197 -0.011876 -6.745077
v -8.079395 -0.059990 -6.745077
v -9.683549 0.067206 -6.745077
v -8.079395 0.065677 -6.745077
v 2.707253 -0.049385 -6.745077
v 2.707253 -0.080532 -6.745077
v 2.818871 -0.049385 -6.745077
v 2.818871 -0.080532 -6.745077
v 2.799184 -0.080188 -6.745077
v 2.754406 -0.080188 -6.745077
v 2.804468 -0.057706 -6.745077
v 2.814819 -0.049385 -6.745077
v 2.738290 -0.049385 -6.745077
v 2.748778 -0.057688 -6.745077
v 4.395017 -0.058461 -3.094454
v 4.283400 -0.058461 -3.094454
v 9.207482 -0.058461 -3.094454
v 3.917267 -0.014655 -3.094454
v 5.999172 0.001247 -3.094454
v 7.603328 -0.059990 -3.094454
v 9.207482 0.067206 -3.094454
v 7.603328 0.065677 -3.094454
v 4.395017 -0.049385 -3.094454
v 4.395017 -0.080532 -3.094454
v 4.283400 -0.049385 -3.094454
v 4.283400 -0.080532 -3.094454
v 4.303087 -0.080188 -3.094454
v 4.347864 -0.080188 -3.094454
v 4.297802 -0.057706 -3.094454
v 4.287451 -0.049385 -3.094454
v 4.363980 -0.049385 -3.094454
v 4.353492 -0.057688 -3.094454
v 2.707253 -0.058461 -3.094454
v 2.818871 -0.058461 -3.094454
v -9.683549 -0.058461 -3.094454
v 3.551135 -0.012631 -3.094454
v 3.185003 -0.014655 -3.094454
v -1.576197 -0.011876 -3.094454
v -8.079395 -0.059990 -3.094454
v -9.683549 0.067206 -3.094454
v -8.079395 0.065677 -3.094454
v 2.707253 -0.049385 -3.094454
v 2.707253 -0.080532 -3.094454
v 2.818871 -0.049385 -3.094454
v 2.818871 -0.080532 -3.094454
v 2.799184 -0.080188 -3.094454
v 2.754406 -0.080188 -3.094454
v 2.804468 -0.057706 -3.094454
v 2.814819 -0.049385 -3.094454
v 2.738290 -0.049385 -3.094454
v 2.748778 -0.057688 -3.094454
v 4.395017 -0.058461 -0.033209
v 4.283400 -0.058461 -0.033209
v 9.207482 -0.058461 -0.033209
v 3.917267 -0.014655 -0.033209
v 5.999172 0.001247 -0.033209
v 7.603328 -0.059990 -0.033209
v 9.207482 0.067206 -0.033209
v 7.603328 0.065677 -0.033209
v 4.395017 -0.049385 -0.033209
v 4.395017 -0.080532 -0.033209
v 4.283400 -0.049385 -0.033209
v 4.283400 -0.080532 -0.033209
v 4.303087 -0.080188 -0.033209
v 4.347864 -0.080188 -0.033209
v 4.297802 -0.057706 -0.033209
v 4.287451 -0.049385 -0.033209
v 4.363980 -0.049385 -0.033209
v 4.353492 -0.057688 -0.033209
v 2.707253 -0.058461 -0.033209
v 2.818871 -0.058461 -0.033209
v -9.683549 -0.058461 -0.033209
v 3.551135 -0.012631 -0.033209
v 3.185003 -0.014655 -0.033209
v -1.576197 -0.011876 -0.033209
v -8.079395 -0.059990 -0.033209
v -9.683549 0.067206 -0.033209
v -8.079395 0.065677 -0.033209
v 2.707253 -0.049385 -0.033209
v 2.707253 -0.080532 -0.033209
v 2.818871 -0.049385 -0.033209
v 2.818871 -0.080532 -0.033209
v 2.799184 -0.080188 -0.033209
v 2.754406 -0.080188 -0.033209
v 2.804468 -0.057706 -0.033209
v 2.814819 -0.049385 -0.033209
v 2.738290 -0.049385 -0.033209
v 2.748778 -0.057688 -0.033209
v 4.395017 -0.058461 2.869696
v 4.283400 -0.058461 2.869696
v 9.207482 -0.058461 2.869696
v 3.917267 -0.014655 2.869696
v 5.999172 0.001247 2.869696
v 7.603328 -0.059990 2.869696
v 9.207482 0.067206 2.869696
v 7.603328 0.065677 2.869696
v 4.395017 -0.049385 2.869696
v 4.395017 -0.080532 2.869696
v 4.283400 -0.049385 2.869696
v 4.283400 -0.080532 2.869696
v 4.303087 -0.080188 2.869696
v 4.347864 -0.080188 2.869696
v 4.297802 -0.057706 2.869696
v 4.287451 -0.049385 2.869696
v 4.363980 -0.049385 2.869696
v 4.353492 -0.057688 2.869696
v 2.707253 -0.058461 2.869696
v 2.818871 -0.058461 2.869696
v -9.683549 -0.058461 2.869696
v 3.551135 -0.012631 2.869696
v 3.185003 -0.014655 2.869696
v -1.576197 -0.011876 2.869696
v -8.079395 -0.059990 2.869696
v -9.683549 0.067206 2.869696
v -8.079395 0.065677 2.869696
v 2.707253 -0.049385 2.869696
v 2.707253 -0.080532 2.869696
v 2.818871 -0.049385 2.869696
v 2.818871 -0.080532 2.869696
v 2.799184 -0.080188 2.869696
v 2.754406 -0.080188 2.869696
v 2.804468 -0.057706 2.869696
v 2.814819 -0.049385 2.869696
v 2.738290 -0.049385 2.869696
v 2.748778 -0.057688 2.869696
v 4.395017 -0.058461 6.775423
v 4.283400 -0.058461 6.775423
v 9.207482 -0.058461 6.775423
v 3.917267 -0.014655 6.775423
v 5.999172 0.001247 6.775423
v 7.603328 -0.059990 6.775423
v 9.207482 0.067206 6.775423
v 7.603328 0.065677 6.775423
v 4.395017 -0.049385 6.775423
v 4.395017 -0.080532 6.775423
v 4.283400 -0.049385 6.775423
v 4.283400 -0.080532 6.775423
v 4.303087 -0.080188 6.775423
v 4.347864 -0.080188 6.775423
v 4.297802 -0.057706 6.775423
v 4.287451 -0.049385 6.775423
v 4.363980 -0.049385 6.775423
v 4.353492 -0.057688 6.775423
v 2.707253 -0.058461 6.775423
v 2.818871 -0.058461 6.775423
v -9.683549 -0.058461 6.775423
v 3.551135 -0.012631 6.775423
v 3.185003 -0.014655 6.775423
v -1.576197 -0.011876 6.775423
v -8.079395 -0.059990 6.775423
v -9.683549 0.067206 6.775423
v -8.079395 0.065677 6.775423
v 2.707253 -0.049385 6.775423
v 2.707253 -0.080532 6.775423
v 2.818871 -0.049385 6.775423
v 2.818871 -0.080532 6.775423
v 2.799184 -0.080188 6.775423
v 2.754406 -0.080188 6.775423
v 2.804468 -0.057706 6.775423
v 2.814819 -0.049385 6.775423
v 2.738290 -0.049385 6.775423
v 2.748778 -0.057688 6.775423
v 2.395189 -0.055016 -6.745077
v 0.967372 -0.039488 -6.745077
v 2.395189 -0.055016 -3.094454
v 0.967372 -0.039488 -3.094454
v 2.395189 -0.055016 -0.033209
v 0.967372 -0.039488 -0.033209
v 2.395189 -0.055016 2.869696
v 0.967372 -0.039488 2.869696
v 2.395189 -0.055016 6.775423
v 0.967372 -0.039488 6.775423
v 2.395189 0.052284 -6.745077
v 0.967372 0.067812 -6.745077
v 2.395189 0.052284 -3.094454
v 0.967372 0.067812 -3.094454
v 2.395189 0.052284 -0.033209
v 0.967372 0.067812 -0.033209
v 2.395189 0.052284 2.869696
v 0.967372 0.067812 2.869696
v 2.395189 0.052284 6.775423
v 0.967372 0.067812 6.775423
vt 0.634005 0.731554
vt 0.634815 0.731559
vt 0.634843 0.778155
vt 0.634030 0.778150
vt 0.620901 0.731531
vt 0.621715 0.731535
vt 0.621726 0.778131
vt 0.620912 0.778128
vt 0.630761 0.731538
vt 0.631572 0.731543
vt 0.631590 0.778140
vt 0.630777 0.778135
vt 0.624144 0.731551
vt 0.624956 0.731552
vt 0.624978 0.778149
vt 0.624164 0.778148
vt 0.635624 0.731565
vt 0.635656 0.778161
vt 0.622525 0.731541
vt 0.623334 0.731547
vt 0.623351 0.778143
vt 0.622539 0.778138
vt 0.633193 0.731550
vt 0.633217 0.778146
vt 0.976353 0.872032
vt 0.968364 0.872032
vt 0.968365 0.792945
vt 0.976353 0.792945
vt 0.625767 0.731557
vt 0.626577 0.731562
vt 0.626604 0.778158
vt 0.625791 0.778153
vt 0.629950 0.731535
vt 0.629964 0.778131
vt 0.960432 0.872032
vt 0.960432 0.792945
vt 0.632382 0.731548
vt 0.632403 0.778144
vt 0.358974 0.684790
vt 0.393751 0.684790
vt 0.393751 0.763877
vt 0.358974 0.763877
vt 0.952500 0.872032
vt 0.944512 0.872032
vt 0.944512 0.792945
vt 0.952500 0.792945
vt 0.324196 0.684790
vt 0.324197 0.763878
vt 0.627388 0.731565
vt 0.627417 0.778162
vt 0.286721 0.684790
vt 0.321474 0.684790
vt 0.321474 0.763878
vt 0.286722 0.763878
vt 0.345700 0.280334
vt 0.400807 0.280334
vt 0.400807 0.359420
vt 0.345700 0.359420
vt 0.283999 0.684790
vt 0.283999 0.763878
vt 0.541695 0.280333
vt 0.541696 0.359421
vt 0.544418 0.280333
vt 0.579170 0.280333
vt 0.579170 0.359421
vt 0.544418 0.359421
vt 0.629137 0.731531
vt 0.629149 0.778128
vt 0.581893 0.280333
vt 0.581893 0.359421
vt 0.636434 0.731568
vt 0.636469 0.778164
vt 0.628199 0.731568
vt 0.628231 0.778165
vt 0.541696 0.425739
vt 0.400807 0.425739
vt 0.324197 0.830196
vt 0.321474 0.830196
vt 0.579170 0.425739
vt 0.544418 0.425739
vt 0.629960 0.824854
vt 0.629145 0.824851
vt 0.581893 0.425739
vt 0.636463 0.824887
vt 0.635649 0.824884
vt 0.633212 0.824868
vt 0.632398 0.824867
vt 0.628224 0.824888
vt 0.627410 0.824885
vt 0.634837 0.824878
vt 0.634025 0.824872
vt 0.621720 0.824854
vt 0.620906 0.824851
vt 0.631585 0.824863
vt 0.630773 0.824857
vt 0.624971 0.824872
vt 0.624157 0.824871
vt 0.623344 0.824867
vt 0.622532 0.824861
vt 0.968365 0.726626
vt 0.976353 0.726626
vt 0.626596 0.824881
vt 0.625784 0.824876
vt 0.960432 0.726626
vt 0.393751 0.830196
vt 0.358974 0.830196
vt 0.944512 0.726626
vt 0.952500 0.726626
vt 0.286722 0.830196
vt 0.345700 0.425739
vt 0.283999 0.830196
vt 0.952500 0.663738
vt 0.960432 0.663738
vt 0.321475 0.893085
vt 0.286722 0.893085
vt 0.625768 0.871599
vt 0.624955 0.871595
vt 0.400807 0.488627
vt 0.345700 0.488627
vt 0.284000 0.893085
vt 0.541696 0.488628
vt 0.324197 0.893085
vt 0.579170 0.488628
vt 0.544418 0.488628
vt 0.629942 0.871577
vt 0.629128 0.871574
vt 0.581893 0.488628
vt 0.636448 0.871610
vt 0.635633 0.871607
vt 0.633195 0.871591
vt 0.632381 0.871590
vt 0.628209 0.871611
vt 0.627394 0.871607
vt 0.634820 0.871601
vt 0.634008 0.871595
vt 0.621703 0.871577
vt 0.620890 0.871574
vt 0.631568 0.871585
vt 0.630755 0.871580
vt 0.624141 0.871593
vt 0.623328 0.871589
vt 0.622515 0.871584
vt 0.968364 0.663738
vt 0.976353 0.663738
vt 0.626581 0.871604
vt 0.393751 0.893085
vt 0.358974 0.893085
vt 0.944512 0.663738
vt 0.632414 0.918186
vt 0.631603 0.918182
vt 0.393750 0.977698
vt 0.358974 0.977697
vt 0.624174 0.918189
vt 0.623363 0.918185
vt 0.944512 0.579125
vt 0.952500 0.579125
vt 0.324197 0.977697
vt 0.627418 0.918204
vt 0.626606 0.918201
vt 0.960432 0.579125
vt 0.321475 0.977697
vt 0.286723 0.977697
vt 0.625796 0.918196
vt 0.624986 0.918191
vt 0.400807 0.573241
vt 0.345700 0.573242
vt 0.284000 0.977697
vt 0.541696 0.573240
vt 0.579170 0.573240
vt 0.544418 0.573240
vt 0.629982 0.918174
vt 0.629171 0.918171
vt 0.581892 0.573240
vt 0.636469 0.918207
vt 0.635655 0.918204
vt 0.633226 0.918188
vt 0.628231 0.918208
vt 0.634845 0.918198
vt 0.634036 0.918192
vt 0.621743 0.918174
vt 0.620933 0.918171
vt 0.630792 0.918177
vt 0.622553 0.918180
vt 0.968364 0.579125
vt 0.976353 0.579125
vt 0.303355 0.488627
vt 0.310116 0.488627
vt 0.310116 0.573242
vt 0.303355 0.573242
vt 0.310117 0.359419
vt 0.310118 0.280335
vt 0.312442 0.280335
vt 0.312442 0.359419
vt 0.303356 0.425739
vt 0.310117 0.425739
vt 0.303356 0.359419
vt 0.312441 0.425739
vt 0.312441 0.488627
vt 0.303357 0.280335
vt 0.343375 0.425739
vt 0.343376 0.359420
vt 0.343375 0.488627
vt 0.343375 0.573242
vt 0.312441 0.573242
vt 0.343376 0.280334
vn 0.6265 0.7794 0.0000
vn 1.0000 0.0000 0.0000
vn -0.6207 0.7840 0.0000
vn 0.0000 1.0000 0.0000
vn -0.6265 0.7794 0.0000
vn 0.9735 0.2289 0.0000
vn 0.9735 0.2288 0.0000
vn 0.1188 0.9929 0.0000
vn 0.0623 0.9981 0.0000
vn 0.6207 0.7840 0.0000
vn -0.9701 0.2426 0.0000
vn 0.0005 1.0000 0.0000
vn -0.0372 0.9993 0.0000
vn -0.9735 0.2288 0.0000
vn -0.0623 0.9981 0.0000
vn -0.1188 0.9929 0.0000
vn 0.0381 0.9993 0.0000
vn -0.0010 1.0000 0.0000
vn 0.9701 0.2427 0.0000
vn 0.9701 0.2426 0.0000
vn 0.0109 0.9999 0.0000
vn 0.0017 1.0000 0.0000
vn -0.0074 1.0000 0.0000
vn -1.0000 0.0000 0.0000
vn 0.0010 1.0000 0.0000
vn -0.9701 0.2427 0.0000
vn 0.0110 0.9999 0.0000
usemtl calle_linea
s 1
f 15/1/1 16/2/1 53/3/1 52/4/1
f 31/5/2 30/6/2 67/7/2 68/8/2
f 17/9/3 18/10/3 55/11/3 54/12/3
f 32/13/4 33/14/4 70/15/4 69/16/4
f 16/2/4 11/17/4 48/18/4 53/3/4
f 35/19/5 34/20/5 71/21/5 72/22/5
f 13/23/6 15/1/6 52/4/7 50/24/7
f 2/25/8 4/26/9 41/27/9 39/28/8
f 37/29/10 36/30/10 73/31/10 74/32/10
f 9/33/4 17/9/4 54/12/4 46/34/4
f 4/26/9 22/35/4 59/36/4 41/27/9
f 30/6/4 35/19/4 72/22/4 67/7/4
f 18/10/11 14/37/11 51/38/11 55/11/11
f 5/39/12 1/40/13 38/41/13 42/42/12
f 34/20/14 32/13/14 69/16/14 71/21/14
f 23/43/15 20/44/16 57/45/16 60/46/15
f 6/47/17 5/39/12 42/42/12 43/48/17
f 36/30/4 28/49/4 65/50/4 73/31/4
f 22/35/4 23/43/15 60/46/15 59/36/4
f 7/51/18 8/52/18 45/53/18 44/54/18
f 33/14/19 37/29/19 74/32/20 70/15/20
f 187/55/21 24/56/22 61/57/22 189/58/21
f 3/59/2 7/51/2 44/54/2 40/60/2
f 24/56/22 25/61/23 62/62/23 61/57/22
f 8/52/24 6/47/24 43/48/24 45/53/24
f 27/63/25 26/64/25 63/65/25 64/66/25
f 10/67/2 9/33/2 46/34/2 47/68/2
f 26/64/24 21/69/24 58/70/24 63/65/24
f 11/17/24 12/71/24 49/72/24 48/18/24
f 25/61/2 27/63/2 64/66/2 62/62/2
f 14/37/4 13/23/4 50/24/4 51/38/4
f 28/49/24 29/73/24 66/74/24 65/50/24
f 61/57/22 62/62/23 99/75/23 98/76/22
f 45/53/24 43/48/24 80/77/24 82/78/24
f 64/66/25 63/65/25 100/79/25 101/80/25
f 47/68/2 46/34/2 83/81/2 84/82/2
f 63/65/24 58/70/24 95/83/24 100/79/24
f 48/18/24 49/72/24 86/84/24 85/85/24
f 62/62/2 64/66/2 101/80/2 99/75/2
f 51/38/4 50/24/4 87/86/4 88/87/4
f 65/50/24 66/74/24 103/88/24 102/89/24
f 52/4/1 53/3/1 90/90/1 89/91/1
f 68/8/2 67/7/2 104/92/2 105/93/2
f 54/12/3 55/11/3 92/94/3 91/95/3
f 69/16/4 70/15/4 107/96/4 106/97/4
f 53/3/4 48/18/4 85/85/4 90/90/4
f 72/22/5 71/21/5 108/98/5 109/99/5
f 50/24/7 52/4/7 89/91/7 87/86/7
f 39/28/8 41/27/9 78/100/9 76/101/8
f 74/32/10 73/31/10 110/102/10 111/103/10
f 46/34/4 54/12/4 91/95/4 83/81/4
f 41/27/9 59/36/4 96/104/4 78/100/9
f 67/7/4 72/22/4 109/99/4 104/92/4
f 55/11/11 51/38/11 88/87/11 92/94/11
f 42/42/12 38/41/13 75/105/13 79/106/12
f 71/21/14 69/16/14 106/97/14 108/98/14
f 60/46/15 57/45/16 94/107/16 97/108/15
f 43/48/17 42/42/12 79/106/12 80/77/17
f 73/31/4 65/50/4 102/89/4 110/102/4
f 59/36/4 60/46/15 97/108/15 96/104/4
f 44/54/18 45/53/18 82/78/18 81/109/18
f 70/15/20 74/32/20 111/103/20 107/96/20
f 189/58/21 61/57/22 98/76/22 191/110/21
f 40/60/2 44/54/2 81/109/2 77/111/2
f 96/104/4 97/108/15 134/112/15 133/113/4
f 81/109/18 82/78/18 119/114/18 118/115/18
f 107/96/20 111/103/20 148/116/20 144/117/20
f 191/110/21 98/76/22 135/118/22 193/119/21
f 77/111/2 81/109/2 118/115/2 114/120/2
f 98/76/22 99/75/23 136/121/23 135/118/22
f 82/78/24 80/77/24 117/122/24 119/114/24
f 101/80/25 100/79/25 137/123/25 138/124/25
f 84/82/2 83/81/2 120/125/2 121/126/2
f 100/79/24 95/83/24 132/127/24 137/123/24
f 85/85/24 86/84/24 123/128/24 122/129/24
f 99/75/2 101/80/2 138/124/2 136/121/2
f 88/87/4 87/86/4 124/130/4 125/131/4
f 102/89/24 103/88/24 140/132/24 139/133/24
f 89/91/1 90/90/1 127/134/1 126/135/1
f 105/93/2 104/92/2 141/136/2 142/137/2
f 91/95/3 92/94/3 129/138/3 128/139/3
f 106/97/4 107/96/4 144/117/4 143/140/4
f 90/90/4 85/85/4 122/129/4 127/134/4
f 109/99/5 108/98/5 145/141/5 146/142/5
f 87/86/7 89/91/7 126/135/6 124/130/6
f 76/101/8 78/100/9 115/143/9 113/144/8
f 111/103/10 110/102/10 147/145/10 148/116/10
f 83/81/4 91/95/4 128/139/4 120/125/4
f 78/100/9 96/104/4 133/113/4 115/143/9
f 104/92/4 109/99/4 146/142/4 141/136/4
f 92/94/11 88/87/11 125/131/11 129/138/11
f 79/106/12 75/105/13 112/146/13 116/147/12
f 108/98/14 106/97/14 143/140/14 145/141/14
f 97/108/15 94/107/16 131/148/16 134/112/15
f 80/77/17 79/106/12 116/147/12 117/122/17
f 110/102/4 102/89/4 139/133/4 147/145/4
f 129/138/11 125/131/11 162/149/26 166/150/26
f 116/147/12 112/146/13 149/151/13 153/152/12
f 145/141/14 143/140/14 180/153/14 182/154/14
f 134/112/15 131/148/16 168/155/16 171/156/15
f 117/122/17 116/147/12 153/152/12 154/157/17
f 147/145/4 139/133/4 176/158/4 184/159/4
f 133/113/4 134/112/15 171/156/15 170/160/4
f 118/115/18 119/114/18 156/161/18 155/162/18
f 144/117/20 148/116/20 185/163/19 181/164/19
f 193/119/21 135/118/22 172/165/22 195/166/21
f 114/120/2 118/115/2 155/162/2 151/167/2
f 135/118/22 136/121/23 173/168/23 172/165/22
f 119/114/24 117/122/24 154/157/24 156/161/24
f 138/124/25 137/123/25 174/169/25 175/170/25
f 121/126/2 120/125/2 157/171/2 158/172/2
f 137/123/24 132/127/24 169/173/24 174/169/24
f 122/129/24 123/128/24 160/174/24 159/175/24
f 136/121/2 138/124/2 175/170/2 173/168/2
f 125/131/4 124/130/4 161/176/4 162/149/4
f 139/133/24 140/132/24 177/177/24 176/158/24
f 126/135/1 127/134/1 164/178/1 163/179/1
f 142/137/2 141/136/2 178/180/2 179/181/2
f 128/139/3 129/138/3 166/150/3 165/182/3
f 143/140/4 144/117/4 181/164/4 180/153/4
f 127/134/4 122/129/4 159/175/4 164/178/4
f 146/142/5 145/141/5 182/154/5 183/183/5
f 124/130/6 126/135/6 163/179/6 161/176/6
f 113/144/8 115/143/9 152/184/9 150/185/8
f 148/116/10 147/145/10 184/159/10 185/163/10
f 120/125/4 128/139/4 165/182/4 157/171/4
f 115/143/9 133/113/4 170/160/4 152/184/9
f 141/136/4 146/142/4 183/183/4 178/180/4
f 130/186/27 192/187/27 194/188/27 167/189/27
f 188/190/2 186/191/2 196/192/2 198/193/2
f 93/194/27 190/195/27 192/187/27 130/186/27
f 56/196/27 188/190/27 190/195/27 93/194/27
f 192/187/2 190/195/2 200/197/2 202/198/2
f 19/199/27 186/191/27 188/190/27 56/196/27
f 189/58/24 191/110/24 201/200/24 199/201/24
f 202/198/21 203/202/21 205/203/21 204/204/21
f 200/197/21 201/200/21 203/202/21 202/198/21
f 198/193/21 199/201/21 201/200/21 200/197/21
f 196/192/21 197/205/21 199/201/21 198/193/21
f 191/110/24 193/119/24 203/202/24 201/200/24
f 194/188/2 192/187/2 202/198/2 204/204/2
f 187/55/24 189/58/24 199/201/24 197/205/24
f 190/195/2 188/190/2 198/193/2 200/197/2
f 193/119/24 195/166/24 205/203/24 203/202/24
