# Blender v2.80 (sub 57) OBJ File: 'linea_carretera.blend'
# www.blender.org
mtllib calle.mtl
o Plane.006_Plane.004
v 0.845334 -0.055459 -7.098133
v 0.845334 -0.055459 7.098156
v 0.733717 -0.055459 -7.098133
v 0.733717 -0.055459 7.098156
v 5.657800 -0.055459 -7.098133
v 5.657800 -0.055459 7.098156
v 0.367585 -0.011652 -7.098133
v 0.367585 -0.011652 7.098156
v 2.449490 0.004249 7.098156
v 4.053645 -0.056987 7.098156
v 4.053644 -0.056987 -7.098133
v 2.449489 0.004249 -7.098133
v 0.845334 -0.055459 0.000011
v 5.657800 -0.055459 0.000011
v 2.449490 0.004249 0.000011
v 4.053644 -0.056987 0.000011
v 0.733717 -0.055459 0.000011
v 0.367585 -0.011652 0.000011
v 5.657800 0.070208 0.000011
v 5.657800 0.070208 7.098156
v 4.053645 0.068680 7.098156
v 5.657800 0.070208 -7.098133
v 4.053644 0.068680 -7.098133
v 4.053644 0.068680 0.000011
v 0.845334 -0.046382 -7.098133
v 0.845334 -0.046382 7.098156
v 0.845334 -0.077530 -7.098133
v 0.845334 -0.077530 7.098156
v 0.733717 -0.046382 -7.098133
v 0.733717 -0.046382 7.098156
v 0.733717 -0.077530 -7.098133
v 0.733717 -0.077530 7.098156
v 0.753404 -0.077185 -7.098133
v 0.753404 -0.077185 7.098156
v 0.798182 -0.077185 -7.098133
v 0.798182 -0.077185 7.098156
v 0.748119 -0.054703 7.098156
v 0.737768 -0.046382 7.098156
v 0.737768 -0.046382 -7.098133
v 0.748119 -0.054703 -7.098133
v 0.803810 -0.054686 -7.098133
v 0.814298 -0.046382 -7.098133
v 0.814298 -0.046382 7.098156
v 0.803810 -0.054686 7.098156
v 2.449490 0.004249 -2.366035
v 2.449489 0.004249 -4.732086
v 4.053644 -0.056987 -2.366035
v 4.053644 -0.056987 -4.732086
v 0.845334 -0.055459 -4.732086
v 0.845334 -0.055459 -2.366035
v 5.657800 -0.055459 -4.732086
v 5.657800 -0.055459 -2.366035
v 4.053644 0.068680 -2.366035
v 4.053644 0.068680 -4.732086
v 5.657800 0.070208 -4.732086
v 5.657800 0.070208 -2.366035
v 0.845334 -0.055459 2.366058
v 0.845334 -0.055459 4.732109
v 5.657800 -0.055459 2.366058
v 5.657800 -0.055459 4.732109
v 2.449490 0.004249 4.732109
v 2.449490 0.004249 2.366058
v 4.053645 -0.056987 4.732109
v 4.053644 -0.056987 2.366058
v 5.657800 0.070208 2.366058
v 5.657800 0.070208 4.732109
v 4.053645 0.068680 4.732109
v 4.053644 0.068680 2.366058
v 0.733717 -0.055459 -2.366035
v 0.733717 -0.055459 -4.732086
v 0.367585 -0.011652 -4.732086
v 0.367585 -0.011652 -2.366035
v 0.845334 -0.046382 0.000011
v 0.845334 -0.077530 0.000011
v 0.733717 -0.046382 0.000011
v 0.733717 -0.077530 0.000011
v 0.753404 -0.077185 0.000011
v 0.798182 -0.077185 0.000011
v 0.748119 -0.054703 0.000011
v 0.737768 -0.046382 0.000011
v 0.814298 -0.046382 0.000011
v 0.803810 -0.054686 0.000011
v 0.733717 -0.046382 -2.366035
v 0.733717 -0.046382 -4.732086
v 0.733717 -0.077530 -2.366035
v 0.733717 -0.077530 -4.732086
v 0.753404 -0.077185 -2.366035
v 0.753404 -0.077185 -4.732086
v 0.798182 -0.077185 -2.366035
v 0.798182 -0.077185 -4.732086
v 0.748119 -0.054703 -2.366035
v 0.748119 -0.054703 -4.732086
v 0.814298 -0.046382 -2.366035
v 0.814298 -0.046382 -4.732086
v 0.845334 -0.046382 -4.732086
v 0.845334 -0.046382 -2.366035
v 0.845334 -0.077530 -4.732086
v 0.845334 -0.077530 -2.366035
v 0.737768 -0.046382 -4.732086
v 0.737768 -0.046382 -2.366035
v 0.803810 -0.054686 -4.732086
v 0.803810 -0.054686 -2.366035
v 0.367585 -0.011652 2.366058
v 0.367585 -0.011652 4.732109
v 0.733717 -0.055459 4.732109
v 0.733717 -0.055459 2.366058
v 0.845334 -0.046382 2.366058
v 0.845334 -0.046382 4.732109
v 0.845334 -0.077530 2.366058
v 0.845334 -0.077530 4.732109
v 0.737768 -0.046382 2.366058
v 0.737768 -0.046382 4.732109
v 0.803810 -0.054686 2.366058
v 0.803810 -0.054686 4.732109
v 0.733717 -0.046382 4.732109
v 0.733717 -0.046382 2.366058
v 0.733717 -0.077530 4.732109
v 0.733717 -0.077530 2.366058
v 0.753404 -0.077185 4.732109
v 0.753404 -0.077185 2.366058
v 0.798182 -0.077185 4.732109
v 0.798182 -0.077185 2.366058
v 0.748119 -0.054703 4.732109
v 0.748119 -0.054703 2.366058
v 0.814298 -0.046382 4.732109
v 0.814298 -0.046382 2.366058
v -0.845337 -0.055459 -7.098133
v -0.845337 -0.055459 7.098156
v -0.733719 -0.055459 -7.098133
v -0.733719 -0.055459 7.098156
v -5.657802 -0.055459 -7.098133
v -5.657802 -0.055459 7.098156
v -0.367587 -0.011652 -7.098133
v -0.367587 -0.011652 7.098156
v -2.449492 0.004249 7.098156
v -4.053647 -0.056987 7.098156
v -4.053646 -0.056987 -7.098133
v -2.449492 0.004249 -7.098133
v -0.845337 -0.055459 0.000011
v -5.657802 -0.055459 0.000011
v -2.449492 0.004249 0.000011
v -4.053646 -0.056987 0.000011
v -0.733719 -0.055459 0.000011
v -0.367587 -0.011652 0.000011
v -5.657802 0.070208 0.000011
v -5.657802 0.070208 7.098156
v -4.053647 0.068680 7.098156
v -5.657802 0.070208 -7.098133
v -4.053646 0.068680 -7.098133
v -4.053646 0.068680 0.000011
v -0.845337 -0.046382 -7.098133
v -0.845337 -0.046382 7.098156
v -0.845337 -0.077530 -7.098133
v -0.845337 -0.077530 7.098156
v -0.733719 -0.046382 -7.098133
v -0.733719 -0.046382 7.098156
v -0.733719 -0.077530 -7.098133
v -0.733719 -0.077530 7.098156
v -0.753406 -0.077185 -7.098133
v -0.753406 -0.077185 7.098156
v -0.798184 -0.077185 -7.098133
v -0.798184 -0.077185 7.098156
v -0.748122 -0.054703 7.098156
v -0.737770 -0.046382 7.098156
v -0.737770 -0.046382 -7.098133
v -0.748122 -0.054703 -7.098133
v -0.803812 -0.054686 -7.098133
v -0.814300 -0.046382 -7.098133
v -0.814300 -0.046382 7.098156
v -0.803812 -0.054686 7.098156
v -2.449492 0.004249 -2.366035
v -2.449492 0.004249 -4.732086
v -4.053646 -0.056987 -2.366035
v -4.053646 -0.056987 -4.732086
v -0.845337 -0.055459 -4.732086
v -0.845337 -0.055459 -2.366035
v -5.657802 -0.055459 -4.732086
v -5.657802 -0.055459 -2.366035
v -4.053646 0.068680 -2.366035
v -4.053646 0.068680 -4.732086
v -5.657802 0.070208 -4.732086
v -5.657802 0.070208 -2.366035
v -0.845337 -0.055459 2.366058
v -0.845337 -0.055459 4.732109
v -5.657802 -0.055459 2.366058
v -5.657802 -0.055459 4.732109
v -2.449492 0.004249 4.732109
v -2.449492 0.004249 2.366058
v -4.053647 -0.056987 4.732109
v -4.053646 -0.056987 2.366058
v -5.657802 0.070208 2.366058
v -5.657802 0.070208 4.732109
v -4.053647 0.068680 4.732109
v -4.053646 0.068680 2.366058
v -0.733719 -0.055459 -2.366035
v -0.733719 -0.055459 -4.732086
v -0.367587 -0.011652 -4.732086
v -0.367587 -0.011652 -2.366035
v -0.845337 -0.046382 0.000011
v -0.845337 -0.077530 0.000011
v -0.733719 -0.046382 0.000011
v -0.733719 -0.077530 0.000011
v -0.753406 -0.077185 0.000011
v -0.798184 -0.077185 0.000011
v -0.748122 -0.054703 0.000011
v -0.737770 -0.046382 0.000011
v -0.814300 -0.046382 0.000011
v -0.803812 -0.054686 0.000011
v -0.733719 -0.046382 -2.366035
v -0.733719 -0.046382 -4.732086
v -0.733719 -0.077530 -2.366035
v -0.733719 -0.077530 -4.732086
v -0.753406 -0.077185 -2.366035
v -0.753406 -0.077185 -4.732086
v -0.798184 -0.077185 -2.366035
v -0.798184 -0.077185 -4.732086
v -0.748122 -0.054703 -2.366035
v -0.748122 -0.054703 -4.732086
v -0.814300 -0.046382 -2.366035
v -0.814300 -0.046382 -4.732086
v -0.845337 -0.046382 -4.732086
v -0.845337 -0.046382 -2.366035
v -0.845337 -0.077530 -4.732086
v -0.845337 -0.077530 -2.366035
v -0.737770 -0.046382 -4.732086
v -0.737770 -0.046382 -2.366035
v -0.803812 -0.054686 -4.732086
v -0.803812 -0.054686 -2.366035
v -0.367587 -0.011652 2.366058
v -0.367587 -0.011652 4.732109
v -0.733719 -0.055459 4.732109
v -0.733719 -0.055459 2.366058
v -0.845337 -0.046382 2.366058
v -0.845337 -0.046382 4.732109
v -0.845337 -0.077530 2.366058
v -0.845337 -0.077530 4.732109
v -0.737770 -0.046382 2.366058
v -0.737770 -0.046382 4.732109
v -0.803812 -0.054686 2.366058
v -0.803812 -0.054686 4.732109
v -0.733719 -0.046382 4.732109
v -0.733719 -0.046382 2.366058
v -0.733719 -0.077530 4.732109
v -0.733719 -0.077530 2.366058
v -0.753406 -0.077185 4.732109
v -0.753406 -0.077185 2.366058
v -0.798184 -0.077185 4.732109
v -0.798184 -0.077185 2.366058
v -0.748122 -0.054703 4.732109
v -0.748122 -0.054703 2.366058
v -0.814300 -0.046382 4.732109
v -0.814300 -0.046382 2.366058
v -0.000001 -0.009628 -7.098133
v -0.000001 -0.009628 7.098156
v -0.000001 -0.009628 0.000011
v -0.000001 -0.009628 -2.366035
v -0.000001 -0.009628 -4.732086
v -0.000001 -0.009628 4.732109
v -0.000001 -0.009628 2.366058
vt 0.985384 0.542093
vt 0.985384 0.594445
vt 0.977251 0.594445
vt 0.977251 0.542093
vt 0.993543 0.542093
vt 0.993543 0.594445
vt 0.282159 0.821980
vt 0.282159 0.874332
vt 0.246640 0.874332
vt 0.246640 0.821980
vt 0.211120 0.874332
vt 0.211120 0.821980
vt 0.246640 0.664924
vt 0.246640 0.717276
vt 0.211120 0.717276
vt 0.211120 0.664924
vt 0.282159 0.664924
vt 0.282159 0.717276
vt 0.208340 0.717276
vt 0.208340 0.664924
vt 0.993543 0.385037
vt 0.993543 0.437389
vt 0.985384 0.437389
vt 0.985384 0.385037
vt 0.977251 0.437389
vt 0.977251 0.385037
vt 0.208340 0.821980
vt 0.208340 0.874332
vt 0.172846 0.874332
vt 0.172846 0.821980
vt 0.172846 0.717276
vt 0.172846 0.664924
vt 0.170065 0.769628
vt 0.170065 0.717276
vt 0.172846 0.769628
vt 0.170065 0.612572
vt 0.170065 0.560220
vt 0.172846 0.560220
vt 0.172846 0.612572
vt 0.549826 0.724481
vt 0.549847 0.684804
vt 0.550538 0.684800
vt 0.550518 0.724478
vt 0.551903 0.724473
vt 0.551920 0.684792
vt 0.552613 0.684790
vt 0.552596 0.724472
vt 0.546322 0.883322
vt 0.547013 0.883323
vt 0.547044 0.922895
vt 0.546356 0.922892
vt 0.551211 0.724474
vt 0.551229 0.684795
vt 0.549075 0.724479
vt 0.549097 0.684803
vt 0.548383 0.724481
vt 0.548406 0.684807
vt 0.548393 0.883313
vt 0.548420 0.922882
vt 0.547732 0.922888
vt 0.547703 0.883318
vt 0.551214 0.883303
vt 0.551235 0.922867
vt 0.550546 0.922873
vt 0.550524 0.883308
vt 0.546999 0.724490
vt 0.547026 0.684817
vt 0.547716 0.684812
vt 0.547691 0.724485
vt 0.170065 0.664924
vt 0.208340 0.560220
vt 0.208340 0.612572
vt 0.211120 0.560220
vt 0.211120 0.612572
vt 0.282159 0.560220
vt 0.282159 0.612572
vt 0.246640 0.612572
vt 0.246640 0.560220
vt 0.211120 0.769628
vt 0.208340 0.769628
vt 0.170065 0.874332
vt 0.170065 0.821980
vt 0.246640 0.769628
vt 0.282159 0.769628
vt 0.993543 0.489741
vt 0.985384 0.489741
vt 0.977251 0.489741
vt 0.546996 0.843656
vt 0.546988 0.803962
vt 0.547678 0.803957
vt 0.547686 0.843651
vt 0.551197 0.764222
vt 0.551193 0.803944
vt 0.550502 0.803948
vt 0.550506 0.764227
vt 0.548371 0.764230
vt 0.548369 0.803953
vt 0.547680 0.764234
vt 0.548376 0.843647
vt 0.549060 0.803950
vt 0.549067 0.843644
vt 0.549811 0.803951
vt 0.549817 0.843645
vt 0.551199 0.843638
vt 0.551885 0.803943
vt 0.551890 0.843636
vt 0.546296 0.764238
vt 0.546989 0.764239
vt 0.546296 0.803961
vt 0.552578 0.803941
vt 0.552582 0.843634
vt 0.550508 0.843642
vt 0.549856 0.922877
vt 0.549833 0.883311
vt 0.551923 0.922864
vt 0.551905 0.883302
vt 0.552596 0.883300
vt 0.552613 0.922861
vt 0.549109 0.922878
vt 0.549083 0.883310
vt 0.546305 0.843655
vt 0.985384 0.280333
vt 0.985384 0.332685
vt 0.977251 0.332685
vt 0.977251 0.280333
vt 0.993543 0.280333
vt 0.993543 0.332685
vt 0.546334 0.684814
vt 0.546306 0.724488
vt 0.549063 0.764228
vt 0.549814 0.764229
vt 0.551890 0.764221
vt 0.552583 0.764220
vt 0.985384 0.542093
vt 0.985384 0.594445
vt 0.993543 0.542093
vt 0.993543 0.594445
vt 0.282159 0.821980
vt 0.246640 0.821980
vt 0.246640 0.874332
vt 0.282159 0.874332
vt 0.211120 0.821980
vt 0.211120 0.874332
vt 0.246640 0.664924
vt 0.211120 0.664924
vt 0.211120 0.717276
vt 0.246640 0.717276
vt 0.282159 0.664924
vt 0.282159 0.717276
vt 0.208340 0.664924
vt 0.208340 0.717276
vt 0.993543 0.385037
vt 0.985384 0.385037
vt 0.985384 0.437389
vt 0.993543 0.437389
vt 0.208340 0.821980
vt 0.172846 0.821980
vt 0.172846 0.874332
vt 0.208340 0.874332
vt 0.172846 0.664924
vt 0.172846 0.717276
vt 0.170065 0.769628
vt 0.172846 0.769628
vt 0.170065 0.717276
vt 0.170065 0.612572
vt 0.172846 0.612572
vt 0.172846 0.560220
vt 0.170065 0.560220
vt 0.549826 0.724481
vt 0.550518 0.724478
vt 0.550538 0.684800
vt 0.549847 0.684804
vt 0.551903 0.724473
vt 0.552596 0.724472
vt 0.552613 0.684790
vt 0.551920 0.684792
vt 0.546322 0.883322
vt 0.546356 0.922892
vt 0.547044 0.922895
vt 0.547013 0.883323
vt 0.551211 0.724474
vt 0.551229 0.684795
vt 0.549075 0.724479
vt 0.549097 0.684803
vt 0.548383 0.724481
vt 0.548406 0.684807
vt 0.548393 0.883313
vt 0.547703 0.883318
vt 0.547732 0.922888
vt 0.548420 0.922882
vt 0.551214 0.883303
vt 0.550524 0.883308
vt 0.550546 0.922873
vt 0.551235 0.922867
vt 0.546999 0.724490
vt 0.547691 0.724485
vt 0.547716 0.684812
vt 0.547026 0.684817
vt 0.170065 0.664924
vt 0.208340 0.560220
vt 0.208340 0.612572
vt 0.211120 0.560220
vt 0.211120 0.612572
vt 0.282159 0.560220
vt 0.246640 0.560220
vt 0.246640 0.612572
vt 0.282159 0.612572
vt 0.208340 0.769628
vt 0.211120 0.769628
vt 0.170065 0.874332
vt 0.170065 0.821980
vt 0.246640 0.769628
vt 0.282159 0.769628
vt 0.985384 0.489741
vt 0.993543 0.489741
vt 0.546996 0.843656
vt 0.547686 0.843651
vt 0.547678 0.803957
vt 0.546988 0.803962
vt 0.551197 0.764222
vt 0.550506 0.764227
vt 0.550502 0.803948
vt 0.551193 0.803944
vt 0.548371 0.764230
vt 0.547680 0.764234
vt 0.548369 0.803953
vt 0.548376 0.843647
vt 0.549067 0.843644
vt 0.549060 0.803950
vt 0.549817 0.843645
vt 0.549811 0.803951
vt 0.551199 0.843638
vt 0.551890 0.843636
vt 0.551885 0.803943
vt 0.546296 0.764238
vt 0.546296 0.803961
vt 0.546989 0.764239
vt 0.552582 0.843634
vt 0.552578 0.803941
vt 0.550508 0.843642
vt 0.549856 0.922877
vt 0.549833 0.883311
vt 0.551923 0.922864
vt 0.552613 0.922861
vt 0.552596 0.883300
vt 0.551905 0.883302
vt 0.549109 0.922878
vt 0.549083 0.883310
vt 0.546305 0.843655
vt 0.985384 0.280333
vt 0.985384 0.332685
vt 0.993543 0.280333
vt 0.993543 0.332685
vt 0.546334 0.684814
vt 0.546306 0.724488
vt 0.549063 0.764228
vt 0.549814 0.764229
vt 0.551890 0.764221
vt 0.552583 0.764220
vn 0.0623 0.9981 0.0000
vn -0.0000 1.0000 0.0000
vn 0.1188 0.9929 0.0000
vn -0.0372 0.9993 0.0000
vn 0.0005 1.0000 0.0000
vn 0.0381 0.9993 0.0000
vn -1.0000 0.0000 0.0000
vn -0.0010 1.0000 0.0000
vn 1.0000 0.0000 0.0000
vn -0.9701 0.2426 0.0000
vn 0.9735 0.2288 0.0000
vn 0.6265 0.7794 0.0000
vn -0.6207 0.7840 0.0000
vn -0.0623 0.9981 0.0000
vn -0.1188 0.9929 0.0000
vn 0.0372 0.9993 0.0000
vn -0.0005 1.0000 -0.0000
vn -0.0381 0.9993 -0.0000
vn 0.0010 1.0000 0.0000
vn 0.9701 0.2426 0.0000
vn -0.9735 0.2288 0.0000
vn -0.6265 0.7794 0.0000
vn 0.6207 0.7840 0.0000
usemtl calle_linea
s 1
f 71/1/1 7/2/1 253/3/2 257/4/2
f 70/5/3 3/6/3 7/2/1 71/1/1
f 58/7/4 2/8/4 9/9/5 61/10/5
f 61/10/5 9/9/5 10/11/6 63/12/6
f 45/13/5 15/14/5 16/15/6 47/16/6
f 50/17/4 13/18/4 15/14/5 45/13/5
f 47/16/7 16/15/7 24/19/7 53/20/7
f 106/21/3 17/22/3 18/23/1 103/24/1
f 103/24/1 18/23/1 255/25/2 259/26/2
f 67/27/8 21/28/8 20/29/8 66/30/8
f 53/20/8 24/19/8 19/31/8 56/32/8
f 59/33/9 14/34/9 19/31/9 65/35/9
f 63/12/7 10/11/7 21/28/7 67/27/7
f 51/36/9 5/37/9 22/38/9 55/39/9
f 121/40/10 36/41/10 44/42/10 114/43/10
f 108/44/9 26/45/9 28/46/9 110/47/9
f 86/48/7 84/49/7 29/50/7 31/51/7
f 125/52/2 43/53/2 26/45/2 108/44/2
f 119/54/2 34/55/2 36/41/2 121/40/2
f 123/56/11 37/57/11 34/55/11 119/54/11
f 92/58/12 40/59/12 39/60/12 99/61/12
f 94/62/13 42/63/13 41/64/13 101/65/13
f 115/66/2 30/67/2 38/68/2 112/69/2
f 14/34/9 52/70/9 56/32/9 19/31/9
f 52/70/9 51/36/9 55/39/9 56/32/9
f 23/71/8 54/72/8 55/39/8 22/38/8
f 54/72/8 53/20/8 56/32/8 55/39/8
f 11/73/7 48/74/7 54/72/7 23/71/7
f 48/74/7 47/16/7 53/20/7 54/72/7
f 1/75/4 49/76/4 46/77/5 12/78/5
f 49/76/4 50/17/4 45/13/5 46/77/5
f 12/78/5 46/77/5 48/74/6 11/73/6
f 46/77/5 45/13/5 47/16/6 48/74/6
f 16/15/7 64/79/7 68/80/7 24/19/7
f 64/79/7 63/12/7 67/27/7 68/80/7
f 6/81/9 60/82/9 66/30/9 20/29/9
f 60/82/9 59/33/9 65/35/9 66/30/9
f 24/19/8 68/80/8 65/35/8 19/31/8
f 68/80/8 67/27/8 66/30/8 65/35/8
f 15/14/5 62/83/5 64/79/6 16/15/6
f 62/83/5 61/10/5 63/12/6 64/79/6
f 13/18/4 57/84/4 62/83/5 15/14/5
f 57/84/4 58/7/4 61/10/5 62/83/5
f 17/22/3 69/85/3 72/86/1 18/23/1
f 69/85/3 70/5/3 71/1/1 72/86/1
f 18/23/1 72/86/1 256/87/2 255/25/2
f 72/86/1 71/1/1 257/4/2 256/87/2
f 83/88/2 75/89/2 80/90/2 100/91/2
f 126/92/13 81/93/13 82/94/13 113/95/13
f 124/96/12 79/97/12 80/90/12 111/98/12
f 91/99/11 79/97/11 77/100/11 87/101/11
f 87/101/2 77/100/2 78/102/2 89/103/2
f 93/104/2 81/93/2 73/105/2 96/106/2
f 118/107/7 116/108/7 75/89/7 76/109/7
f 96/106/9 73/105/9 74/110/9 98/111/9
f 89/103/10 78/102/10 82/94/10 102/112/10
f 35/113/10 90/114/10 101/65/10 41/64/10
f 90/114/10 89/103/10 102/112/10 101/65/10
f 25/115/9 95/116/9 97/117/9 27/118/9
f 95/116/9 96/106/9 98/111/9 97/117/9
f 42/63/2 94/62/2 95/116/2 25/115/2
f 94/62/2 93/104/2 96/106/2 95/116/2
f 33/119/2 88/120/2 90/114/2 35/113/2
f 88/120/2 87/101/2 89/103/2 90/114/2
f 40/59/11 92/58/11 88/120/11 33/119/11
f 92/58/11 91/99/11 87/101/11 88/120/11
f 29/50/2 84/49/2 99/61/2 39/60/2
f 84/49/2 83/88/2 100/91/2 99/61/2
f 81/93/13 93/104/13 102/112/13 82/94/13
f 93/104/13 94/62/13 101/65/13 102/112/13
f 79/97/12 91/99/12 100/91/12 80/90/12
f 91/99/12 92/58/12 99/61/12 100/91/12
f 76/109/7 75/89/7 83/88/7 85/121/7
f 85/121/7 83/88/7 84/49/7 86/48/7
f 8/122/1 104/123/1 258/124/2 254/125/2
f 104/123/1 103/24/1 259/26/2 258/124/2
f 4/126/3 105/127/3 104/123/1 8/122/1
f 105/127/3 106/21/3 103/24/1 104/123/1
f 32/128/7 30/67/7 115/66/7 117/129/7
f 117/129/7 115/66/7 116/108/7 118/107/7
f 37/57/12 123/56/12 112/69/12 38/68/12
f 123/56/12 124/96/12 111/98/12 112/69/12
f 43/53/13 125/52/13 114/43/13 44/42/13
f 125/52/13 126/92/13 113/95/13 114/43/13
f 75/89/2 116/108/2 111/98/2 80/90/2
f 116/108/2 115/66/2 112/69/2 111/98/2
f 79/97/11 124/96/11 120/130/11 77/100/11
f 124/96/11 123/56/11 119/54/11 120/130/11
f 77/100/2 120/130/2 122/131/2 78/102/2
f 120/130/2 119/54/2 121/40/2 122/131/2
f 81/93/2 126/92/2 107/132/2 73/105/2
f 126/92/2 125/52/2 108/44/2 107/132/2
f 73/105/9 107/132/9 109/133/9 74/110/9
f 107/132/9 108/44/9 110/47/9 109/133/9
f 78/102/10 122/131/10 113/95/10 82/94/10
f 122/131/10 121/40/10 114/43/10 113/95/10
f 197/134/14 257/4/2 253/3/2 133/135/14
f 196/136/15 197/134/14 133/135/14 129/137/15
f 184/138/16 187/139/17 135/140/17 128/141/16
f 187/139/17 189/142/18 136/143/18 135/140/17
f 171/144/17 173/145/18 142/146/18 141/147/17
f 176/148/16 171/144/17 141/147/17 139/149/16
f 173/145/9 179/150/9 150/151/9 142/146/9
f 232/152/15 229/153/14 144/154/14 143/155/15
f 229/153/14 259/26/2 255/25/2 144/154/14
f 193/156/19 192/157/19 146/158/19 147/159/19
f 179/150/19 182/160/19 145/161/19 150/151/19
f 185/162/7 191/163/7 145/161/7 140/164/7
f 189/142/9 193/156/9 147/159/9 136/143/9
f 177/165/7 181/166/7 148/167/7 131/168/7
f 247/169/20 240/170/20 170/171/20 162/172/20
f 234/173/7 236/174/7 154/175/7 152/176/7
f 212/177/9 157/178/9 155/179/9 210/180/9
f 251/181/2 234/173/2 152/176/2 169/182/2
f 245/183/2 247/169/2 162/172/2 160/184/2
f 249/185/21 245/183/21 160/184/21 163/186/21
f 218/187/22 225/188/22 165/189/22 166/190/22
f 220/191/23 227/192/23 167/193/23 168/194/23
f 241/195/2 238/196/2 164/197/2 156/198/2
f 140/164/7 145/161/7 182/160/7 178/199/7
f 178/199/7 182/160/7 181/166/7 177/165/7
f 149/200/19 148/167/19 181/166/19 180/201/19
f 180/201/19 181/166/19 182/160/19 179/150/19
f 137/202/9 149/200/9 180/201/9 174/203/9
f 174/203/9 180/201/9 179/150/9 173/145/9
f 127/204/16 138/205/17 172/206/17 175/207/16
f 175/207/16 172/206/17 171/144/17 176/148/16
f 138/205/17 137/202/18 174/203/18 172/206/17
f 172/206/17 174/203/18 173/145/18 171/144/17
f 142/146/9 150/151/9 194/208/9 190/209/9
f 190/209/9 194/208/9 193/156/9 189/142/9
f 132/210/7 146/158/7 192/157/7 186/211/7
f 186/211/7 192/157/7 191/163/7 185/162/7
f 150/151/19 145/161/19 191/163/19 194/208/19
f 194/208/19 191/163/19 192/157/19 193/156/19
f 141/147/17 142/146/18 190/209/18 188/212/17
f 188/212/17 190/209/18 189/142/18 187/139/17
f 139/149/16 141/147/17 188/212/17 183/213/16
f 183/213/16 188/212/17 187/139/17 184/138/16
f 143/155/15 144/154/14 198/214/14 195/215/15
f 195/215/15 198/214/14 197/134/14 196/136/15
f 144/154/14 255/25/2 256/87/2 198/214/14
f 198/214/14 256/87/2 257/4/2 197/134/14
f 209/216/2 226/217/2 206/218/2 201/219/2
f 252/220/23 239/221/23 208/222/23 207/223/23
f 250/224/22 237/225/22 206/218/22 205/226/22
f 217/227/21 213/228/21 203/229/21 205/226/21
f 213/228/2 215/230/2 204/231/2 203/229/2
f 219/232/2 222/233/2 199/234/2 207/223/2
f 244/235/9 202/236/9 201/219/9 242/237/9
f 222/233/7 224/238/7 200/239/7 199/234/7
f 215/230/20 228/240/20 208/222/20 204/231/20
f 161/241/20 167/193/20 227/192/20 216/242/20
f 216/242/20 227/192/20 228/240/20 215/230/20
f 151/243/7 153/244/7 223/245/7 221/246/7
f 221/246/7 223/245/7 224/238/7 222/233/7
f 168/194/2 151/243/2 221/246/2 220/191/2
f 220/191/2 221/246/2 222/233/2 219/232/2
f 159/247/2 161/241/2 216/242/2 214/248/2
f 214/248/2 216/242/2 215/230/2 213/228/2
f 166/190/21 159/247/21 214/248/21 218/187/21
f 218/187/21 214/248/21 213/228/21 217/227/21
f 155/179/2 165/189/2 225/188/2 210/180/2
f 210/180/2 225/188/2 226/217/2 209/216/2
f 207/223/23 208/222/23 228/240/23 219/232/23
f 219/232/23 228/240/23 227/192/23 220/191/23
f 205/226/22 206/218/22 226/217/22 217/227/22
f 217/227/22 226/217/22 225/188/22 218/187/22
f 202/236/9 211/249/9 209/216/9 201/219/9
f 211/249/9 212/177/9 210/180/9 209/216/9
f 134/250/14 254/125/2 258/124/2 230/251/14
f 230/251/14 258/124/2 259/26/2 229/153/14
f 130/252/15 134/250/14 230/251/14 231/253/15
f 231/253/15 230/251/14 229/153/14 232/152/15
f 158/254/9 243/255/9 241/195/9 156/198/9
f 243/255/9 244/235/9 242/237/9 241/195/9
f 163/186/22 164/197/22 238/196/22 249/185/22
f 249/185/22 238/196/22 237/225/22 250/224/22
f 169/182/23 170/171/23 240/170/23 251/181/23
f 251/181/23 240/170/23 239/221/23 252/220/23
f 201/219/2 206/218/2 237/225/2 242/237/2
f 242/237/2 237/225/2 238/196/2 241/195/2
f 205/226/21 203/229/21 246/256/21 250/224/21
f 250/224/21 246/256/21 245/183/21 249/185/21
f 203/229/2 204/231/2 248/257/2 246/256/2
f 246/256/2 248/257/2 247/169/2 245/183/2
f 207/223/2 199/234/2 233/258/2 252/220/2
f 252/220/2 233/258/2 234/173/2 251/181/2
f 199/234/7 200/239/7 235/259/7 233/258/7
f 233/258/7 235/259/7 236/174/7 234/173/7
f 204/231/20 208/222/20 239/221/20 248/257/20
f 248/257/20 239/221/20 240/170/20 247/169/20
